<svg viewBox="0 0 1200 120" fill="none" xmlns="http://www.w3.org/2000/svg">
<g filter="url(#filter0_ii_215_696)">
<rect width="347" height="27" rx="3" fill="#E2E1E0"/>
</g>
<g opacity="0.7">
<path d="M181.5 17.25C181.5 17.9404 182.06 18.5 182.75 18.5C183.44 18.5 184 17.9404 184 17.25C184 16.5596 183.44 16 182.75 16C182.06 16 181.5 16.5596 181.5 17.25Z" fill="#233950" fill-opacity="0.69"/>
<path d="M177 17.25C177 17.9404 177.56 18.5 178.25 18.5C178.94 18.5 179.5 17.9404 179.5 17.25C179.5 16.5596 178.94 16 178.25 16C177.56 16 177 16.5596 177 17.25Z" fill="#233950" fill-opacity="0.69"/>
<path d="M172.5 17.25C172.5 17.9404 173.06 18.5 173.75 18.5C174.44 18.5 175 17.9404 175 17.25C175 16.5596 174.44 16 173.75 16C173.06 16 172.5 16.5596 172.5 17.25Z" fill="#233950" fill-opacity="0.69"/>
<path d="M181.5 11.25C181.5 11.9404 182.06 12.5 182.75 12.5C183.44 12.5 184 11.9404 184 11.25C184 10.5596 183.44 10 182.75 10C182.06 10 181.5 10.5596 181.5 11.25Z" fill="#233950" fill-opacity="0.69"/>
<path d="M177 11.25C177 11.9404 177.56 12.5 178.25 12.5C178.94 12.5 179.5 11.9404 179.5 11.25C179.5 10.5596 178.94 10 178.25 10C177.56 10 177 10.5596 177 11.25Z" fill="#233950" fill-opacity="0.69"/>
<path d="M172.5 11.25C172.5 11.9404 173.06 12.5 173.75 12.5C174.44 12.5 175 11.9404 175 11.25C175 10.5596 174.44 10 173.75 10C173.06 10 172.5 10.5596 172.5 11.25Z" fill="#233950" fill-opacity="0.69"/>
</g>
<defs>
<filter id="filter0_ii_215_696" x="-4" y="-4" width="353" height="33" filterUnits="userSpaceOnUse" color-interpolation-filters="sRGB">
<feFlood flood-opacity="0" result="BackgroundImageFix"/>
<feBlend mode="normal" in="SourceGraphic" in2="BackgroundImageFix" result="shape"/>
<feColorMatrix in="SourceAlpha" type="matrix" values="0 0 0 0 0 0 0 0 0 0 0 0 0 0 0 0 0 0 127 0" result="hardAlpha"/>
<feOffset dx="2" dy="2"/>
<feGaussianBlur stdDeviation="2"/>
<feComposite in2="hardAlpha" operator="arithmetic" k2="-1" k3="1"/>
<feColorMatrix type="matrix" values="0 0 0 0 0 0 0 0 0 0 0 0 0 0 0 0 0 0 0.25 0"/>
<feBlend mode="normal" in2="shape" result="effect1_innerShadow_215_696"/>
<feColorMatrix in="SourceAlpha" type="matrix" values="0 0 0 0 0 0 0 0 0 0 0 0 0 0 0 0 0 0 127 0" result="hardAlpha"/>
<feOffset dx="-4" dy="-4"/>
<feGaussianBlur stdDeviation="2.5"/>
<feComposite in2="hardAlpha" operator="arithmetic" k2="-1" k3="1"/>
<feColorMatrix type="matrix" values="0 0 0 0 1 0 0 0 0 1 0 0 0 0 1 0 0 0 0.6 0"/>
<feBlend mode="normal" in2="effect1_innerShadow_215_696" result="effect2_innerShadow_215_696"/>
</filter>
</defs>
</svg>
