<svg viewBox="0 0 1200 120" fill="none" xmlns="http://www.w3.org/2000/svg">
<g filter="url(#filter0_ii_215_684)">
<rect width="757" height="27" rx="3" fill="#E2E1E0"/>
</g>
<g opacity="0.7">
<path d="M405.996 17.25C405.996 17.9404 406.556 18.5 407.246 18.5C407.936 18.5 408.496 17.9404 408.496 17.25C408.496 16.5596 407.936 16 407.246 16C406.556 16 405.996 16.5596 405.996 17.25Z" fill="#233950" fill-opacity="0.69"/>
<path d="M401.496 17.25C401.496 17.9404 402.056 18.5 402.746 18.5C403.436 18.5 403.996 17.9404 403.996 17.25C403.996 16.5596 403.436 16 402.746 16C402.056 16 401.496 16.5596 401.496 17.25Z" fill="#233950" fill-opacity="0.69"/>
<path d="M396.996 17.25C396.996 17.9404 397.556 18.5 398.246 18.5C398.936 18.5 399.496 17.9404 399.496 17.25C399.496 16.5596 398.936 16 398.246 16C397.556 16 396.996 16.5596 396.996 17.25Z" fill="#233950" fill-opacity="0.69"/>
<path d="M405.996 11.25C405.996 11.9404 406.556 12.5 407.246 12.5C407.936 12.5 408.496 11.9404 408.496 11.25C408.496 10.5596 407.936 10 407.246 10C406.556 10 405.996 10.5596 405.996 11.25Z" fill="#233950" fill-opacity="0.69"/>
<path d="M401.496 11.25C401.496 11.9404 402.056 12.5 402.746 12.5C403.436 12.5 403.996 11.9404 403.996 11.25C403.996 10.5596 403.436 10 402.746 10C402.056 10 401.496 10.5596 401.496 11.25Z" fill="#233950" fill-opacity="0.69"/>
<path d="M396.996 11.25C396.996 11.9404 397.556 12.5 398.246 12.5C398.936 12.5 399.496 11.9404 399.496 11.25C399.496 10.5596 398.936 10 398.246 10C397.556 10 396.996 10.5596 396.996 11.25Z" fill="#233950" fill-opacity="0.69"/>
</g>
<defs>
<filter id="filter0_ii_215_684" x="-4" y="-4" width="763" height="33" filterUnits="userSpaceOnUse" color-interpolation-filters="sRGB">
<feFlood flood-opacity="0" result="BackgroundImageFix"/>
<feBlend mode="normal" in="SourceGraphic" in2="BackgroundImageFix" result="shape"/>
<feColorMatrix in="SourceAlpha" type="matrix" values="0 0 0 0 0 0 0 0 0 0 0 0 0 0 0 0 0 0 127 0" result="hardAlpha"/>
<feOffset dx="2" dy="2"/>
<feGaussianBlur stdDeviation="2"/>
<feComposite in2="hardAlpha" operator="arithmetic" k2="-1" k3="1"/>
<feColorMatrix type="matrix" values="0 0 0 0 0 0 0 0 0 0 0 0 0 0 0 0 0 0 0.25 0"/>
<feBlend mode="normal" in2="shape" result="effect1_innerShadow_215_684"/>
<feColorMatrix in="SourceAlpha" type="matrix" values="0 0 0 0 0 0 0 0 0 0 0 0 0 0 0 0 0 0 127 0" result="hardAlpha"/>
<feOffset dx="-4" dy="-4"/>
<feGaussianBlur stdDeviation="2.5"/>
<feComposite in2="hardAlpha" operator="arithmetic" k2="-1" k3="1"/>
<feColorMatrix type="matrix" values="0 0 0 0 1 0 0 0 0 1 0 0 0 0 1 0 0 0 0.6 0"/>
<feBlend mode="normal" in2="effect1_innerShadow_215_684" result="effect2_innerShadow_215_684"/>
</filter>
</defs>
</svg>
