<svg width="814" height="68" viewBox="0 0 814 68" fill="none" xmlns="http://www.w3.org/2000/svg">
<path d="M29 41.5H786" stroke="#6B4D57"/>
<line x1="30" y1="24" x2="30" y2="52" stroke="#525252" stroke-width="2" stroke-linecap="round"/>
<path d="M16.1035 12.1193C15.4615 12.1193 14.9146 11.9446 14.4629 11.5952C14.0112 11.2429 13.666 10.733 13.4274 10.0653C13.1887 9.39489 13.0694 8.58523 13.0694 7.63636C13.0694 6.69318 13.1887 5.88778 13.4274 5.22017C13.6689 4.54972 14.0154 4.03835 14.4672 3.68608C14.9217 3.33097 15.4672 3.15341 16.1035 3.15341C16.7399 3.15341 17.2839 3.33097 17.7356 3.68608C18.1902 4.03835 18.5368 4.54972 18.7754 5.22017C19.0169 5.88778 19.1376 6.69318 19.1376 7.63636C19.1376 8.58523 19.0183 9.39489 18.7797 10.0653C18.541 10.733 18.1958 11.2429 17.7441 11.5952C17.2924 11.9446 16.7456 12.1193 16.1035 12.1193ZM16.1035 11.1818C16.7399 11.1818 17.2342 10.875 17.5865 10.2614C17.9387 9.64773 18.1149 8.77273 18.1149 7.63636C18.1149 6.88068 18.0339 6.23722 17.872 5.70597C17.7129 5.17472 17.4828 4.76989 17.1816 4.49148C16.8833 4.21307 16.524 4.07386 16.1035 4.07386C15.4728 4.07386 14.9799 4.38494 14.6248 5.0071C14.2697 5.62642 14.0922 6.50284 14.0922 7.63636C14.0922 8.39205 14.1717 9.03409 14.3308 9.5625C14.4899 10.0909 14.7186 10.4929 15.0169 10.7685C15.318 11.044 15.6802 11.1818 16.1035 11.1818ZM23.6547 12.1193C23.2967 12.1136 22.9387 12.0455 22.5808 11.9148C22.2228 11.7841 21.8961 11.5639 21.6007 11.2543C21.3052 10.9418 21.068 10.5199 20.889 9.98864C20.71 9.45455 20.6206 8.78409 20.6206 7.97727C20.6206 7.20455 20.693 6.51989 20.8379 5.9233C20.9828 5.32386 21.193 4.8196 21.4686 4.41051C21.7441 3.99858 22.0765 3.68608 22.4657 3.47301C22.8578 3.25994 23.2995 3.15341 23.791 3.15341C24.2797 3.15341 24.7143 3.25142 25.095 3.44744C25.4785 3.64062 25.791 3.91051 26.0325 4.2571C26.274 4.60369 26.4302 5.00284 26.5012 5.45455H25.4615C25.3649 5.0625 25.1774 4.73722 24.899 4.47869C24.6206 4.22017 24.2512 4.09091 23.791 4.09091C23.1149 4.09091 22.5822 4.38494 22.193 4.97301C21.8066 5.56108 21.612 6.38636 21.6092 7.44886H21.6774C21.8365 7.20739 22.0254 7.00142 22.2441 6.83097C22.4657 6.65767 22.71 6.52415 22.9771 6.4304C23.2441 6.33665 23.5268 6.28977 23.8251 6.28977C24.3251 6.28977 24.7825 6.41477 25.1973 6.66477C25.612 6.91193 25.9444 7.25426 26.1944 7.69176C26.4444 8.12642 26.5694 8.625 26.5694 9.1875C26.5694 9.72727 26.4487 10.2216 26.2072 10.6705C25.9657 11.1165 25.6262 11.4716 25.1887 11.7358C24.7541 11.9972 24.2427 12.125 23.6547 12.1193ZM23.6547 11.1818C24.0126 11.1818 24.3336 11.0923 24.6177 10.9134C24.9047 10.7344 25.1305 10.4943 25.2953 10.1932C25.4629 9.89205 25.5467 9.55682 25.5467 9.1875C25.5467 8.8267 25.4657 8.49858 25.3038 8.20312C25.1447 7.90483 24.9245 7.66761 24.6433 7.49148C24.3649 7.31534 24.0467 7.22727 23.6887 7.22727C23.4189 7.22727 23.1674 7.28125 22.9345 7.3892C22.7015 7.49432 22.497 7.6392 22.3208 7.82386C22.1475 8.00852 22.0112 8.22017 21.9118 8.45881C21.8123 8.6946 21.7626 8.94318 21.7626 9.20455C21.7626 9.55114 21.8436 9.875 22.0055 10.1761C22.1703 10.4773 22.3947 10.7202 22.6788 10.9048C22.9657 11.0895 23.291 11.1818 23.6547 11.1818ZM28.9952 10.8835C28.785 10.8835 28.6046 10.8082 28.454 10.6577C28.3034 10.5071 28.2282 10.3267 28.2282 10.1165C28.2282 9.90625 28.3034 9.72585 28.454 9.57528C28.6046 9.42472 28.785 9.34943 28.9952 9.34943C29.2054 9.34943 29.3858 9.42472 29.5364 9.57528C29.687 9.72585 29.7623 9.90625 29.7623 10.1165C29.7623 10.2557 29.7267 10.3835 29.6557 10.5C29.5875 10.6165 29.4952 10.7102 29.3787 10.7812C29.2651 10.8494 29.1373 10.8835 28.9952 10.8835ZM28.9952 6.46875C28.785 6.46875 28.6046 6.39347 28.454 6.2429C28.3034 6.09233 28.2282 5.91193 28.2282 5.7017C28.2282 5.49148 28.3034 5.31108 28.454 5.16051C28.6046 5.00994 28.785 4.93466 28.9952 4.93466C29.2054 4.93466 29.3858 5.00994 29.5364 5.16051C29.687 5.31108 29.7623 5.49148 29.7623 5.7017C29.7623 5.84091 29.7267 5.96875 29.6557 6.08523C29.5875 6.2017 29.4952 6.29545 29.3787 6.36648C29.2651 6.43466 29.1373 6.46875 28.9952 6.46875ZM34.3965 12.1193C33.7544 12.1193 33.2076 11.9446 32.7559 11.5952C32.3042 11.2429 31.959 10.733 31.7203 10.0653C31.4817 9.39489 31.3624 8.58523 31.3624 7.63636C31.3624 6.69318 31.4817 5.88778 31.7203 5.22017C31.9618 4.54972 32.3084 4.03835 32.7601 3.68608C33.2147 3.33097 33.7601 3.15341 34.3965 3.15341C35.0328 3.15341 35.5769 3.33097 36.0286 3.68608C36.4831 4.03835 36.8297 4.54972 37.0684 5.22017C37.3098 5.88778 37.4306 6.69318 37.4306 7.63636C37.4306 8.58523 37.3113 9.39489 37.0726 10.0653C36.834 10.733 36.4888 11.2429 36.0371 11.5952C35.5854 11.9446 35.0385 12.1193 34.3965 12.1193ZM34.3965 11.1818C35.0328 11.1818 35.5272 10.875 35.8794 10.2614C36.2317 9.64773 36.4078 8.77273 36.4078 7.63636C36.4078 6.88068 36.3269 6.23722 36.165 5.70597C36.0059 5.17472 35.7757 4.76989 35.4746 4.49148C35.1763 4.21307 34.8169 4.07386 34.3965 4.07386C33.7658 4.07386 33.2729 4.38494 32.9178 5.0071C32.5627 5.62642 32.3851 6.50284 32.3851 7.63636C32.3851 8.39205 32.4647 9.03409 32.6238 9.5625C32.7828 10.0909 33.0115 10.4929 33.3098 10.7685C33.611 11.044 33.9732 11.1818 34.3965 11.1818ZM41.8965 12.1193C41.2544 12.1193 40.7076 11.9446 40.2559 11.5952C39.8042 11.2429 39.459 10.733 39.2203 10.0653C38.9817 9.39489 38.8624 8.58523 38.8624 7.63636C38.8624 6.69318 38.9817 5.88778 39.2203 5.22017C39.4618 4.54972 39.8084 4.03835 40.2601 3.68608C40.7147 3.33097 41.2601 3.15341 41.8965 3.15341C42.5328 3.15341 43.0769 3.33097 43.5286 3.68608C43.9831 4.03835 44.3297 4.54972 44.5684 5.22017C44.8098 5.88778 44.9306 6.69318 44.9306 7.63636C44.9306 8.58523 44.8113 9.39489 44.5726 10.0653C44.334 10.733 43.9888 11.2429 43.5371 11.5952C43.0854 11.9446 42.5385 12.1193 41.8965 12.1193ZM41.8965 11.1818C42.5328 11.1818 43.0272 10.875 43.3794 10.2614C43.7317 9.64773 43.9078 8.77273 43.9078 7.63636C43.9078 6.88068 43.8269 6.23722 43.665 5.70597C43.5059 5.17472 43.2757 4.76989 42.9746 4.49148C42.6763 4.21307 42.3169 4.07386 41.8965 4.07386C41.2658 4.07386 40.7729 4.38494 40.4178 5.0071C40.0627 5.62642 39.8851 6.50284 39.8851 7.63636C39.8851 8.39205 39.9647 9.03409 40.1238 9.5625C40.2828 10.0909 40.5115 10.4929 40.8098 10.7685C41.111 11.044 41.4732 11.1818 41.8965 11.1818Z" fill="#525252"/>
<line x1="92.5" y1="34.5" x2="92.5" y2="48.5" stroke="#525252" stroke-linecap="round"/>
<path d="M83.9819 29.0795C83.5728 29.0795 83.2234 28.9621 82.9336 28.7273C82.6457 28.4905 82.4241 28.1487 82.2688 27.7017C82.1154 27.2547 82.0387 26.7178 82.0387 26.0909C82.0387 25.4659 82.1154 24.9309 82.2688 24.4858C82.4241 24.0388 82.6467 23.697 82.9364 23.4602C83.2281 23.2216 83.5766 23.1023 83.9819 23.1023C84.3872 23.1023 84.7347 23.2216 85.0245 23.4602C85.3162 23.697 85.5387 24.0388 85.6921 24.4858C85.8474 24.9309 85.9251 25.4659 85.9251 26.0909C85.9251 26.7178 85.8474 27.2547 85.6921 27.7017C85.5387 28.1487 85.3171 28.4905 85.0273 28.7273C84.7395 28.9621 84.391 29.0795 83.9819 29.0795ZM83.9819 28.6023C84.4308 28.6023 84.7811 28.3835 85.033 27.946C85.2849 27.5066 85.4109 26.8883 85.4109 26.0909C85.4109 25.5606 85.3531 25.108 85.2376 24.733C85.1239 24.3561 84.9601 24.0682 84.7461 23.8693C84.534 23.6705 84.2792 23.571 83.9819 23.571C83.5368 23.571 83.1874 23.7926 82.9336 24.2358C82.6798 24.6771 82.5529 25.2955 82.5529 26.0909C82.5529 26.6212 82.6097 27.0739 82.7234 27.4489C82.8389 27.8239 83.0027 28.1098 83.2148 28.3068C83.4289 28.5038 83.6845 28.6023 83.9819 28.6023ZM87.0927 29L89.7433 23.696V23.6591H86.6893V23.1818H90.3001V23.6818L87.6523 29H87.0927ZM91.5827 28.1278C91.471 28.1278 91.3744 28.0881 91.293 28.0085C91.2134 27.9271 91.1737 27.8305 91.1737 27.7188C91.1737 27.6051 91.2134 27.5085 91.293 27.429C91.3744 27.3494 91.471 27.3097 91.5827 27.3097C91.6964 27.3097 91.793 27.3494 91.8725 27.429C91.9521 27.5085 91.9918 27.6051 91.9918 27.7188C91.9918 27.7926 91.9729 27.8608 91.935 27.9233C91.899 27.9858 91.8498 28.036 91.7873 28.0739C91.7267 28.1098 91.6585 28.1278 91.5827 28.1278ZM91.5827 25.1761C91.471 25.1761 91.3744 25.1364 91.293 25.0568C91.2134 24.9754 91.1737 24.8788 91.1737 24.767C91.1737 24.6553 91.2134 24.5597 91.293 24.4801C91.3744 24.3987 91.471 24.358 91.5827 24.358C91.6964 24.358 91.793 24.3987 91.8725 24.4801C91.9521 24.5597 91.9918 24.6553 91.9918 24.767C91.9918 24.8409 91.9729 24.9091 91.935 24.9716C91.899 25.0341 91.8498 25.0843 91.7873 25.1222C91.7267 25.1581 91.6585 25.1761 91.5827 25.1761ZM95.1147 29.0795C94.7056 29.0795 94.3562 28.9621 94.0664 28.7273C93.7785 28.4905 93.5569 28.1487 93.4016 27.7017C93.2482 27.2547 93.1715 26.7178 93.1715 26.0909C93.1715 25.4659 93.2482 24.9309 93.4016 24.4858C93.5569 24.0388 93.7795 23.697 94.0692 23.4602C94.3609 23.2216 94.7094 23.1023 95.1147 23.1023C95.52 23.1023 95.8675 23.2216 96.1573 23.4602C96.449 23.697 96.6715 24.0388 96.8249 24.4858C96.9802 24.9309 97.0579 25.4659 97.0579 26.0909C97.0579 26.7178 96.9802 27.2547 96.8249 27.7017C96.6715 28.1487 96.4499 28.4905 96.1602 28.7273C95.8723 28.9621 95.5238 29.0795 95.1147 29.0795ZM95.1147 28.6023C95.5636 28.6023 95.9139 28.3835 96.1658 27.946C96.4177 27.5066 96.5437 26.8883 96.5437 26.0909C96.5437 25.5606 96.4859 25.108 96.3704 24.733C96.2567 24.3561 96.0929 24.0682 95.8789 23.8693C95.6668 23.6705 95.4121 23.571 95.1147 23.571C94.6696 23.571 94.3202 23.7926 94.0664 24.2358C93.8126 24.6771 93.6857 25.2955 93.6857 26.0909C93.6857 26.6212 93.7425 27.0739 93.8562 27.4489C93.9717 27.8239 94.1355 28.1098 94.3477 28.3068C94.5617 28.5038 94.8174 28.6023 95.1147 28.6023ZM100.021 29.0795C99.6119 29.0795 99.2624 28.9621 98.9727 28.7273C98.6848 28.4905 98.4632 28.1487 98.3079 27.7017C98.1545 27.2547 98.0778 26.7178 98.0778 26.0909C98.0778 25.4659 98.1545 24.9309 98.3079 24.4858C98.4632 24.0388 98.6857 23.697 98.9755 23.4602C99.2672 23.2216 99.6156 23.1023 100.021 23.1023C100.426 23.1023 100.774 23.2216 101.064 23.4602C101.355 23.697 101.578 24.0388 101.731 24.4858C101.886 24.9309 101.964 25.4659 101.964 26.0909C101.964 26.7178 101.886 27.2547 101.731 27.7017C101.578 28.1487 101.356 28.4905 101.066 28.7273C100.779 28.9621 100.43 29.0795 100.021 29.0795ZM100.021 28.6023C100.47 28.6023 100.82 28.3835 101.072 27.946C101.324 27.5066 101.45 26.8883 101.45 26.0909C101.45 25.5606 101.392 25.108 101.277 24.733C101.163 24.3561 100.999 24.0682 100.785 23.8693C100.573 23.6705 100.318 23.571 100.021 23.571C99.5759 23.571 99.2264 23.7926 98.9727 24.2358C98.7189 24.6771 98.592 25.2955 98.592 26.0909C98.592 26.6212 98.6488 27.0739 98.7624 27.4489C98.878 27.8239 99.0418 28.1098 99.2539 28.3068C99.4679 28.5038 99.7236 28.6023 100.021 28.6023Z" fill="#525252"/>
<line x1="470.5" y1="34.5" x2="470.5" y2="48.5" stroke="#525252" stroke-linecap="round"/>
<path d="M462.166 23.1818V29H461.635V23.7386H461.6L460.237 24.6449V24.0938L461.612 23.1818H462.166ZM465.822 29.0795C465.464 29.0795 465.144 29.0152 464.862 28.8864C464.58 28.7557 464.356 28.5748 464.191 28.3438C464.027 28.1127 463.94 27.8466 463.93 27.5455H464.467C464.476 27.7576 464.542 27.9432 464.663 28.1023C464.784 28.2595 464.945 28.3826 465.146 28.4716C465.347 28.5587 465.57 28.6023 465.816 28.6023C466.085 28.6023 466.322 28.5521 466.527 28.4517C466.733 28.3513 466.894 28.214 467.01 28.0398C467.127 27.8636 467.186 27.6648 467.186 27.4432C467.186 27.2083 467.126 27.0009 467.007 26.821C466.887 26.6411 466.716 26.5009 466.493 26.4006C466.271 26.3002 466.006 26.25 465.697 26.25H465.356V25.7727H465.697C465.949 25.7727 466.172 25.7273 466.365 25.6364C466.56 25.5436 466.713 25.4138 466.825 25.2472C466.937 25.0805 466.993 24.8845 466.993 24.6591C466.993 24.4451 466.944 24.2566 466.848 24.0938C466.751 23.9309 466.615 23.803 466.439 23.7102C466.264 23.6174 466.061 23.571 465.828 23.571C465.602 23.571 465.396 23.6146 465.208 23.7017C465.021 23.7888 464.869 23.9119 464.754 24.071C464.64 24.2301 464.58 24.4186 464.572 24.6364H464.058C464.065 24.3333 464.149 24.0672 464.308 23.8381C464.469 23.607 464.682 23.4271 464.947 23.2983C465.214 23.1676 465.51 23.1023 465.833 23.1023C466.176 23.1023 466.473 23.1723 466.723 23.3125C466.973 23.4527 467.166 23.6392 467.302 23.8722C467.44 24.1032 467.51 24.358 467.51 24.6364C467.51 24.9678 467.42 25.2519 467.24 25.4886C467.06 25.7235 466.817 25.8864 466.512 25.9773V26.0142C466.884 26.0881 467.175 26.2528 467.387 26.5085C467.601 26.7623 467.708 27.0739 467.708 27.4432C467.708 27.7538 467.627 28.0331 467.464 28.2812C467.301 28.5275 467.078 28.7225 466.794 28.8665C466.511 29.0085 466.188 29.0795 465.822 29.0795ZM469.387 28.1278C469.276 28.1278 469.179 28.0881 469.098 28.0085C469.018 27.9271 468.978 27.8305 468.978 27.7188C468.978 27.6051 469.018 27.5085 469.098 27.429C469.179 27.3494 469.276 27.3097 469.387 27.3097C469.501 27.3097 469.598 27.3494 469.677 27.429C469.757 27.5085 469.797 27.6051 469.797 27.7188C469.797 27.7926 469.778 27.8608 469.74 27.9233C469.704 27.9858 469.654 28.036 469.592 28.0739C469.531 28.1098 469.463 28.1278 469.387 28.1278ZM469.387 25.1761C469.276 25.1761 469.179 25.1364 469.098 25.0568C469.018 24.9754 468.978 24.8788 468.978 24.767C468.978 24.6553 469.018 24.5597 469.098 24.4801C469.179 24.3987 469.276 24.358 469.387 24.358C469.501 24.358 469.598 24.3987 469.677 24.4801C469.757 24.5597 469.797 24.6553 469.797 24.767C469.797 24.8409 469.778 24.9091 469.74 24.9716C469.704 25.0341 469.654 25.0843 469.592 25.1222C469.531 25.1581 469.463 25.1761 469.387 25.1761ZM472.919 29.0795C472.51 29.0795 472.161 28.9621 471.871 28.7273C471.583 28.4905 471.362 28.1487 471.206 27.7017C471.053 27.2547 470.976 26.7178 470.976 26.0909C470.976 25.4659 471.053 24.9309 471.206 24.4858C471.362 24.0388 471.584 23.697 471.874 23.4602C472.166 23.2216 472.514 23.1023 472.919 23.1023C473.325 23.1023 473.672 23.2216 473.962 23.4602C474.254 23.697 474.476 24.0388 474.63 24.4858C474.785 24.9309 474.863 25.4659 474.863 26.0909C474.863 26.7178 474.785 27.2547 474.63 27.7017C474.476 28.1487 474.255 28.4905 473.965 28.7273C473.677 28.9621 473.328 29.0795 472.919 29.0795ZM472.919 28.6023C473.368 28.6023 473.719 28.3835 473.971 27.946C474.222 27.5066 474.348 26.8883 474.348 26.0909C474.348 25.5606 474.291 25.108 474.175 24.733C474.061 24.3561 473.898 24.0682 473.684 23.8693C473.471 23.6705 473.217 23.571 472.919 23.571C472.474 23.571 472.125 23.7926 471.871 24.2358C471.617 24.6771 471.49 25.2955 471.49 26.0909C471.49 26.6212 471.547 27.0739 471.661 27.4489C471.776 27.8239 471.94 28.1098 472.152 28.3068C472.366 28.5038 472.622 28.6023 472.919 28.6023ZM477.826 29.0795C477.417 29.0795 477.067 28.9621 476.777 28.7273C476.489 28.4905 476.268 28.1487 476.113 27.7017C475.959 27.2547 475.882 26.7178 475.882 26.0909C475.882 25.4659 475.959 24.9309 476.113 24.4858C476.268 24.0388 476.49 23.697 476.78 23.4602C477.072 23.2216 477.42 23.1023 477.826 23.1023C478.231 23.1023 478.578 23.2216 478.868 23.4602C479.16 23.697 479.382 24.0388 479.536 24.4858C479.691 24.9309 479.769 25.4659 479.769 26.0909C479.769 26.7178 479.691 27.2547 479.536 27.7017C479.382 28.1487 479.161 28.4905 478.871 28.7273C478.583 28.9621 478.235 29.0795 477.826 29.0795ZM477.826 28.6023C478.275 28.6023 478.625 28.3835 478.877 27.946C479.129 27.5066 479.255 26.8883 479.255 26.0909C479.255 25.5606 479.197 25.108 479.081 24.733C478.968 24.3561 478.804 24.0682 478.59 23.8693C478.378 23.6705 478.123 23.571 477.826 23.571C477.381 23.571 477.031 23.7926 476.777 24.2358C476.524 24.6771 476.397 25.2955 476.397 26.0909C476.397 26.6212 476.453 27.0739 476.567 27.4489C476.683 27.8239 476.846 28.1098 477.059 28.3068C477.273 28.5038 477.528 28.6023 477.826 28.6023Z" fill="#525252"/>
<line x1="659.5" y1="34.5" x2="659.5" y2="48.5" stroke="#525252" stroke-linecap="round"/>
<path d="M651.244 23.1818V29H650.713V23.7386H650.679L649.315 24.6449V24.0938L650.69 23.1818H651.244ZM654.843 29.0795C654.603 29.0777 654.368 29.0294 654.139 28.9347C653.91 28.8381 653.703 28.6837 653.52 28.4716C653.336 28.2576 653.19 27.9754 653.082 27.625C652.974 27.2746 652.92 26.8437 652.92 26.3324C652.92 25.8589 652.962 25.4252 653.045 25.0312C653.128 24.6373 653.253 24.2964 653.42 24.0085C653.587 23.7206 653.795 23.4981 654.045 23.3409C654.295 23.1818 654.588 23.1023 654.923 23.1023C655.237 23.1023 655.515 23.1676 655.755 23.2983C655.996 23.4271 656.191 23.607 656.341 23.8381C656.49 24.0691 656.584 24.3352 656.622 24.6364H656.099C656.046 24.3295 655.92 24.0767 655.721 23.8778C655.522 23.679 655.256 23.5795 654.923 23.5795C654.446 23.5795 654.076 23.8011 653.815 24.2443C653.554 24.6856 653.422 25.3125 653.42 26.125H653.457C653.55 25.9527 653.669 25.804 653.815 25.679C653.963 25.5521 654.13 25.4536 654.318 25.3835C654.505 25.3116 654.702 25.2756 654.909 25.2756C655.233 25.2756 655.529 25.358 655.798 25.5227C656.067 25.6856 656.282 25.91 656.443 26.196C656.604 26.4801 656.684 26.8049 656.684 27.1705C656.684 27.517 656.608 27.8362 656.454 28.1278C656.303 28.4195 656.089 28.6515 655.812 28.8239C655.538 28.9962 655.215 29.0814 654.843 29.0795ZM654.843 28.6023C655.097 28.6023 655.324 28.5379 655.522 28.4091C655.723 28.2803 655.881 28.108 655.997 27.892C656.112 27.6742 656.17 27.4337 656.17 27.1705C656.17 26.9072 656.112 26.6686 655.997 26.4545C655.881 26.2405 655.723 26.0701 655.522 25.9432C655.324 25.8163 655.097 25.7528 654.843 25.7528C654.65 25.7528 654.47 25.7926 654.304 25.8722C654.137 25.9498 653.992 26.0568 653.869 26.1932C653.748 26.3277 653.655 26.482 653.591 26.6562C653.528 26.8305 653.504 27.0133 653.52 27.2045C653.54 27.4716 653.609 27.7112 653.727 27.9233C653.846 28.1335 654.002 28.2992 654.193 28.4205C654.386 28.5417 654.603 28.6023 654.843 28.6023ZM658.309 28.1278C658.198 28.1278 658.101 28.0881 658.02 28.0085C657.94 27.9271 657.9 27.8305 657.9 27.7188C657.9 27.6051 657.94 27.5085 658.02 27.429C658.101 27.3494 658.198 27.3097 658.309 27.3097C658.423 27.3097 658.52 27.3494 658.599 27.429C658.679 27.5085 658.718 27.6051 658.718 27.7188C658.718 27.7926 658.699 27.8608 658.662 27.9233C658.626 27.9858 658.576 28.036 658.514 28.0739C658.453 28.1098 658.385 28.1278 658.309 28.1278ZM658.309 25.1761C658.198 25.1761 658.101 25.1364 658.02 25.0568C657.94 24.9754 657.9 24.8788 657.9 24.767C657.9 24.6553 657.94 24.5597 658.02 24.4801C658.101 24.3987 658.198 24.358 658.309 24.358C658.423 24.358 658.52 24.3987 658.599 24.4801C658.679 24.5597 658.718 24.6553 658.718 24.767C658.718 24.8409 658.699 24.9091 658.662 24.9716C658.626 25.0341 658.576 25.0843 658.514 25.1222C658.453 25.1581 658.385 25.1761 658.309 25.1761ZM661.841 29.0795C661.432 29.0795 661.083 28.9621 660.793 28.7273C660.505 28.4905 660.283 28.1487 660.128 27.7017C659.975 27.2547 659.898 26.7178 659.898 26.0909C659.898 25.4659 659.975 24.9309 660.128 24.4858C660.283 24.0388 660.506 23.697 660.796 23.4602C661.087 23.2216 661.436 23.1023 661.841 23.1023C662.247 23.1023 662.594 23.2216 662.884 23.4602C663.176 23.697 663.398 24.0388 663.551 24.4858C663.707 24.9309 663.784 25.4659 663.784 26.0909C663.784 26.7178 663.707 27.2547 663.551 27.7017C663.398 28.1487 663.176 28.4905 662.887 28.7273C662.599 28.9621 662.25 29.0795 661.841 29.0795ZM661.841 28.6023C662.29 28.6023 662.641 28.3835 662.892 27.946C663.144 27.5066 663.27 26.8883 663.27 26.0909C663.27 25.5606 663.212 25.108 663.097 24.733C662.983 24.3561 662.819 24.0682 662.605 23.8693C662.393 23.6705 662.139 23.571 661.841 23.571C661.396 23.571 661.047 23.7926 660.793 24.2358C660.539 24.6771 660.412 25.2955 660.412 26.0909C660.412 26.6212 660.469 27.0739 660.583 27.4489C660.698 27.8239 660.862 28.1098 661.074 28.3068C661.288 28.5038 661.544 28.6023 661.841 28.6023ZM666.748 29.0795C666.338 29.0795 665.989 28.9621 665.699 28.7273C665.411 28.4905 665.19 28.1487 665.034 27.7017C664.881 27.2547 664.804 26.7178 664.804 26.0909C664.804 25.4659 664.881 24.9309 665.034 24.4858C665.19 24.0388 665.412 23.697 665.702 23.4602C665.994 23.2216 666.342 23.1023 666.748 23.1023C667.153 23.1023 667.5 23.2216 667.79 23.4602C668.082 23.697 668.304 24.0388 668.458 24.4858C668.613 24.9309 668.691 25.4659 668.691 26.0909C668.691 26.7178 668.613 27.2547 668.458 27.7017C668.304 28.1487 668.083 28.4905 667.793 28.7273C667.505 28.9621 667.157 29.0795 666.748 29.0795ZM666.748 28.6023C667.196 28.6023 667.547 28.3835 667.799 27.946C668.051 27.5066 668.176 26.8883 668.176 26.0909C668.176 25.5606 668.119 25.108 668.003 24.733C667.89 24.3561 667.726 24.0682 667.512 23.8693C667.3 23.6705 667.045 23.571 666.748 23.571C666.302 23.571 665.953 23.7926 665.699 24.2358C665.445 24.6771 665.319 25.2955 665.319 26.0909C665.319 26.6212 665.375 27.0739 665.489 27.4489C665.605 27.8239 665.768 28.1098 665.98 28.3068C666.194 28.5038 666.45 28.6023 666.748 28.6023Z" fill="#525252"/>
<line x1="344.5" y1="34.5" x2="344.5" y2="48.5" stroke="#525252" stroke-linecap="round"/>
<path d="M336.9 23.1818V29H336.369V23.7386H336.335L334.971 24.6449V24.0938L336.346 23.1818H336.9ZM340.463 23.1818V29H339.931V23.7386H339.897L338.534 24.6449V24.0938L339.909 23.1818H340.463ZM342.653 28.1278C342.541 28.1278 342.445 28.0881 342.363 28.0085C342.284 27.9271 342.244 27.8305 342.244 27.7188C342.244 27.6051 342.284 27.5085 342.363 27.429C342.445 27.3494 342.541 27.3097 342.653 27.3097C342.767 27.3097 342.863 27.3494 342.943 27.429C343.022 27.5085 343.062 27.6051 343.062 27.7188C343.062 27.7926 343.043 27.8608 343.005 27.9233C342.969 27.9858 342.92 28.036 342.858 28.0739C342.797 28.1098 342.729 28.1278 342.653 28.1278ZM342.653 25.1761C342.541 25.1761 342.445 25.1364 342.363 25.0568C342.284 24.9754 342.244 24.8788 342.244 24.767C342.244 24.6553 342.284 24.5597 342.363 24.4801C342.445 24.3987 342.541 24.358 342.653 24.358C342.767 24.358 342.863 24.3987 342.943 24.4801C343.022 24.5597 343.062 24.6553 343.062 24.767C343.062 24.8409 343.043 24.9091 343.005 24.9716C342.969 25.0341 342.92 25.0843 342.858 25.1222C342.797 25.1581 342.729 25.1761 342.653 25.1761ZM346.185 29.0795C345.776 29.0795 345.426 28.9621 345.137 28.7273C344.849 28.4905 344.627 28.1487 344.472 27.7017C344.319 27.2547 344.242 26.7178 344.242 26.0909C344.242 25.4659 344.319 24.9309 344.472 24.4858C344.627 24.0388 344.85 23.697 345.14 23.4602C345.431 23.2216 345.78 23.1023 346.185 23.1023C346.59 23.1023 346.938 23.2216 347.228 23.4602C347.519 23.697 347.742 24.0388 347.895 24.4858C348.051 24.9309 348.128 25.4659 348.128 26.0909C348.128 26.7178 348.051 27.2547 347.895 27.7017C347.742 28.1487 347.52 28.4905 347.23 28.7273C346.943 28.9621 346.594 29.0795 346.185 29.0795ZM346.185 28.6023C346.634 28.6023 346.984 28.3835 347.236 27.946C347.488 27.5066 347.614 26.8883 347.614 26.0909C347.614 25.5606 347.556 25.108 347.441 24.733C347.327 24.3561 347.163 24.0682 346.949 23.8693C346.737 23.6705 346.482 23.571 346.185 23.571C345.74 23.571 345.391 23.7926 345.137 24.2358C344.883 24.6771 344.756 25.2955 344.756 26.0909C344.756 26.6212 344.813 27.0739 344.926 27.4489C345.042 27.8239 345.206 28.1098 345.418 28.3068C345.632 28.5038 345.888 28.6023 346.185 28.6023ZM351.091 29.0795C350.682 29.0795 350.333 28.9621 350.043 28.7273C349.755 28.4905 349.533 28.1487 349.378 27.7017C349.225 27.2547 349.148 26.7178 349.148 26.0909C349.148 25.4659 349.225 24.9309 349.378 24.4858C349.533 24.0388 349.756 23.697 350.046 23.4602C350.337 23.2216 350.686 23.1023 351.091 23.1023C351.497 23.1023 351.844 23.2216 352.134 23.4602C352.426 23.697 352.648 24.0388 352.801 24.4858C352.957 24.9309 353.034 25.4659 353.034 26.0909C353.034 26.7178 352.957 27.2547 352.801 27.7017C352.648 28.1487 352.426 28.4905 352.137 28.7273C351.849 28.9621 351.5 29.0795 351.091 29.0795ZM351.091 28.6023C351.54 28.6023 351.891 28.3835 352.142 27.946C352.394 27.5066 352.52 26.8883 352.52 26.0909C352.52 25.5606 352.462 25.108 352.347 24.733C352.233 24.3561 352.069 24.0682 351.855 23.8693C351.643 23.6705 351.389 23.571 351.091 23.571C350.646 23.571 350.297 23.7926 350.043 24.2358C349.789 24.6771 349.662 25.2955 349.662 26.0909C349.662 26.6212 349.719 27.0739 349.833 27.4489C349.948 27.8239 350.112 28.1098 350.324 28.3068C350.538 28.5038 350.794 28.6023 351.091 28.6023Z" fill="#525252"/>
<line x1="533.5" y1="34.5" x2="533.5" y2="48.5" stroke="#525252" stroke-linecap="round"/>
<path d="M525.178 23.1818V29H524.646V23.7386H524.612L523.249 24.6449V24.0938L524.624 23.1818H525.178ZM526.805 27.75V27.3182L529.399 23.1818H529.717V23.9062H529.482L527.399 27.2358V27.2727H530.8V27.75H526.805ZM529.521 29V27.6136V27.4148V23.1818H530.027V29H529.521ZM532.376 28.1278C532.264 28.1278 532.167 28.0881 532.086 28.0085C532.006 27.9271 531.967 27.8305 531.967 27.7188C531.967 27.6051 532.006 27.5085 532.086 27.429C532.167 27.3494 532.264 27.3097 532.376 27.3097C532.489 27.3097 532.586 27.3494 532.665 27.429C532.745 27.5085 532.785 27.6051 532.785 27.7188C532.785 27.7926 532.766 27.8608 532.728 27.9233C532.692 27.9858 532.643 28.036 532.58 28.0739C532.52 28.1098 532.451 28.1278 532.376 28.1278ZM532.376 25.1761C532.264 25.1761 532.167 25.1364 532.086 25.0568C532.006 24.9754 531.967 24.8788 531.967 24.767C531.967 24.6553 532.006 24.5597 532.086 24.4801C532.167 24.3987 532.264 24.358 532.376 24.358C532.489 24.358 532.586 24.3987 532.665 24.4801C532.745 24.5597 532.785 24.6553 532.785 24.767C532.785 24.8409 532.766 24.9091 532.728 24.9716C532.692 25.0341 532.643 25.0843 532.58 25.1222C532.52 25.1581 532.451 25.1761 532.376 25.1761ZM535.908 29.0795C535.499 29.0795 535.149 28.9621 534.859 28.7273C534.571 28.4905 534.35 28.1487 534.195 27.7017C534.041 27.2547 533.964 26.7178 533.964 26.0909C533.964 25.4659 534.041 24.9309 534.195 24.4858C534.35 24.0388 534.572 23.697 534.862 23.4602C535.154 23.2216 535.502 23.1023 535.908 23.1023C536.313 23.1023 536.661 23.2216 536.95 23.4602C537.242 23.697 537.464 24.0388 537.618 24.4858C537.773 24.9309 537.851 25.4659 537.851 26.0909C537.851 26.7178 537.773 27.2547 537.618 27.7017C537.464 28.1487 537.243 28.4905 536.953 28.7273C536.665 28.9621 536.317 29.0795 535.908 29.0795ZM535.908 28.6023C536.357 28.6023 536.707 28.3835 536.959 27.946C537.211 27.5066 537.337 26.8883 537.337 26.0909C537.337 25.5606 537.279 25.108 537.163 24.733C537.05 24.3561 536.886 24.0682 536.672 23.8693C536.46 23.6705 536.205 23.571 535.908 23.571C535.463 23.571 535.113 23.7926 534.859 24.2358C534.606 24.6771 534.479 25.2955 534.479 26.0909C534.479 26.6212 534.536 27.0739 534.649 27.4489C534.765 27.8239 534.929 28.1098 535.141 28.3068C535.355 28.5038 535.61 28.6023 535.908 28.6023ZM540.814 29.0795C540.405 29.0795 540.055 28.9621 539.766 28.7273C539.478 28.4905 539.256 28.1487 539.101 27.7017C538.947 27.2547 538.871 26.7178 538.871 26.0909C538.871 25.4659 538.947 24.9309 539.101 24.4858C539.256 24.0388 539.479 23.697 539.768 23.4602C540.06 23.2216 540.409 23.1023 540.814 23.1023C541.219 23.1023 541.567 23.2216 541.857 23.4602C542.148 23.697 542.371 24.0388 542.524 24.4858C542.679 24.9309 542.757 25.4659 542.757 26.0909C542.757 26.7178 542.679 27.2547 542.524 27.7017C542.371 28.1487 542.149 28.4905 541.859 28.7273C541.571 28.9621 541.223 29.0795 540.814 29.0795ZM540.814 28.6023C541.263 28.6023 541.613 28.3835 541.865 27.946C542.117 27.5066 542.243 26.8883 542.243 26.0909C542.243 25.5606 542.185 25.108 542.07 24.733C541.956 24.3561 541.792 24.0682 541.578 23.8693C541.366 23.6705 541.111 23.571 540.814 23.571C540.369 23.571 540.019 23.7926 539.766 24.2358C539.512 24.6771 539.385 25.2955 539.385 26.0909C539.385 26.6212 539.442 27.0739 539.555 27.4489C539.671 27.8239 539.835 28.1098 540.047 28.3068C540.261 28.5038 540.517 28.6023 540.814 28.6023Z" fill="#525252"/>
<line x1="722.5" y1="34.5" x2="722.5" y2="48.5" stroke="#525252" stroke-linecap="round"/>
<path d="M714.564 23.1818V29H714.033V23.7386H713.999L712.635 24.6449V24.0938L714.01 23.1818H714.564ZM716.499 29L719.15 23.696V23.6591H716.096V23.1818H719.706V23.6818L717.059 29H716.499ZM720.989 28.1278C720.877 28.1278 720.781 28.0881 720.699 28.0085C720.62 27.9271 720.58 27.8305 720.58 27.7188C720.58 27.6051 720.62 27.5085 720.699 27.429C720.781 27.3494 720.877 27.3097 720.989 27.3097C721.103 27.3097 721.199 27.3494 721.279 27.429C721.358 27.5085 721.398 27.6051 721.398 27.7188C721.398 27.7926 721.379 27.8608 721.341 27.9233C721.305 27.9858 721.256 28.036 721.194 28.0739C721.133 28.1098 721.065 28.1278 720.989 28.1278ZM720.989 25.1761C720.877 25.1761 720.781 25.1364 720.699 25.0568C720.62 24.9754 720.58 24.8788 720.58 24.767C720.58 24.6553 720.62 24.5597 720.699 24.4801C720.781 24.3987 720.877 24.358 720.989 24.358C721.103 24.358 721.199 24.3987 721.279 24.4801C721.358 24.5597 721.398 24.6553 721.398 24.767C721.398 24.8409 721.379 24.9091 721.341 24.9716C721.305 25.0341 721.256 25.0843 721.194 25.1222C721.133 25.1581 721.065 25.1761 720.989 25.1761ZM724.521 29.0795C724.112 29.0795 723.762 28.9621 723.473 28.7273C723.185 28.4905 722.963 28.1487 722.808 27.7017C722.654 27.2547 722.578 26.7178 722.578 26.0909C722.578 25.4659 722.654 24.9309 722.808 24.4858C722.963 24.0388 723.186 23.697 723.475 23.4602C723.767 23.2216 724.116 23.1023 724.521 23.1023C724.926 23.1023 725.274 23.2216 725.564 23.4602C725.855 23.697 726.078 24.0388 726.231 24.4858C726.386 24.9309 726.464 25.4659 726.464 26.0909C726.464 26.7178 726.386 27.2547 726.231 27.7017C726.078 28.1487 725.856 28.4905 725.566 28.7273C725.279 28.9621 724.93 29.0795 724.521 29.0795ZM724.521 28.6023C724.97 28.6023 725.32 28.3835 725.572 27.946C725.824 27.5066 725.95 26.8883 725.95 26.0909C725.95 25.5606 725.892 25.108 725.777 24.733C725.663 24.3561 725.499 24.0682 725.285 23.8693C725.073 23.6705 724.818 23.571 724.521 23.571C724.076 23.571 723.726 23.7926 723.473 24.2358C723.219 24.6771 723.092 25.2955 723.092 26.0909C723.092 26.6212 723.149 27.0739 723.262 27.4489C723.378 27.8239 723.542 28.1098 723.754 28.3068C723.968 28.5038 724.224 28.6023 724.521 28.6023ZM729.427 29.0795C729.018 29.0795 728.669 28.9621 728.379 28.7273C728.091 28.4905 727.869 28.1487 727.714 27.7017C727.561 27.2547 727.484 26.7178 727.484 26.0909C727.484 25.4659 727.561 24.9309 727.714 24.4858C727.869 24.0388 728.092 23.697 728.382 23.4602C728.673 23.2216 729.022 23.1023 729.427 23.1023C729.833 23.1023 730.18 23.2216 730.47 23.4602C730.761 23.697 730.984 24.0388 731.137 24.4858C731.293 24.9309 731.37 25.4659 731.37 26.0909C731.37 26.7178 731.293 27.2547 731.137 27.7017C730.984 28.1487 730.762 28.4905 730.473 28.7273C730.185 28.9621 729.836 29.0795 729.427 29.0795ZM729.427 28.6023C729.876 28.6023 730.226 28.3835 730.478 27.946C730.73 27.5066 730.856 26.8883 730.856 26.0909C730.856 25.5606 730.798 25.108 730.683 24.733C730.569 24.3561 730.405 24.0682 730.191 23.8693C729.979 23.6705 729.725 23.571 729.427 23.571C728.982 23.571 728.633 23.7926 728.379 24.2358C728.125 24.6771 727.998 25.2955 727.998 26.0909C727.998 26.6212 728.055 27.0739 728.169 27.4489C728.284 27.8239 728.448 28.1098 728.66 28.3068C728.874 28.5038 729.13 28.6023 729.427 28.6023Z" fill="#525252"/>
<line x1="155.5" y1="34.5" x2="155.5" y2="48.5" stroke="#525252" stroke-linecap="round"/>
<path d="M146.572 29.0795C146.163 29.0795 145.813 28.9621 145.523 28.7273C145.236 28.4905 145.014 28.1487 144.859 27.7017C144.705 27.2547 144.629 26.7178 144.629 26.0909C144.629 25.4659 144.705 24.9309 144.859 24.4858C145.014 24.0388 145.237 23.697 145.526 23.4602C145.818 23.2216 146.166 23.1023 146.572 23.1023C146.977 23.1023 147.325 23.2216 147.614 23.4602C147.906 23.697 148.129 24.0388 148.282 24.4858C148.437 24.9309 148.515 25.4659 148.515 26.0909C148.515 26.7178 148.437 27.2547 148.282 27.7017C148.129 28.1487 147.907 28.4905 147.617 28.7273C147.329 28.9621 146.981 29.0795 146.572 29.0795ZM146.572 28.6023C147.021 28.6023 147.371 28.3835 147.623 27.946C147.875 27.5066 148.001 26.8883 148.001 26.0909C148.001 25.5606 147.943 25.108 147.827 24.733C147.714 24.3561 147.55 24.0682 147.336 23.8693C147.124 23.6705 146.869 23.571 146.572 23.571C146.127 23.571 145.777 23.7926 145.523 24.2358C145.27 24.6771 145.143 25.2955 145.143 26.0909C145.143 26.6212 145.2 27.0739 145.313 27.4489C145.429 27.8239 145.593 28.1098 145.805 28.3068C146.019 28.5038 146.274 28.6023 146.572 28.6023ZM151.469 29.0795C151.098 29.0795 150.768 29.0095 150.478 28.8693C150.188 28.7292 149.961 28.5379 149.796 28.2955C149.631 28.0511 149.549 27.7756 149.549 27.4688C149.549 27.2282 149.599 27.0038 149.7 26.7955C149.8 26.5852 149.938 26.4091 150.114 26.267C150.29 26.1231 150.488 26.0294 150.708 25.9858V25.9545C150.422 25.8712 150.192 25.7074 150.018 25.4631C149.844 25.2169 149.757 24.9375 149.759 24.625C149.757 24.3352 149.831 24.0758 149.981 23.8466C150.13 23.6174 150.334 23.4366 150.592 23.304C150.851 23.1695 151.144 23.1023 151.469 23.1023C151.793 23.1023 152.084 23.1695 152.342 23.304C152.599 23.4366 152.803 23.6174 152.952 23.8466C153.104 24.0758 153.181 24.3352 153.183 24.625C153.181 24.9356 153.093 25.215 152.918 25.4631C152.744 25.7093 152.515 25.8731 152.231 25.9545V25.9858C152.451 26.0275 152.647 26.1203 152.822 26.2642C152.996 26.4081 153.134 26.5852 153.237 26.7955C153.339 27.0038 153.39 27.2282 153.39 27.4688C153.39 27.7756 153.307 28.0511 153.14 28.2955C152.975 28.5379 152.748 28.7292 152.458 28.8693C152.17 29.0095 151.841 29.0795 151.469 29.0795ZM151.469 28.6023C151.746 28.6023 151.988 28.553 152.197 28.4545C152.407 28.3542 152.571 28.2169 152.688 28.0426C152.808 27.8684 152.867 27.6686 152.867 27.4432C152.867 27.2102 152.806 27.0028 152.683 26.821C152.559 26.6373 152.393 26.4924 152.183 26.3864C151.972 26.2784 151.735 26.2244 151.469 26.2244C151.204 26.2244 150.966 26.2784 150.754 26.3864C150.543 26.4924 150.377 26.6373 150.254 26.821C150.132 27.0028 150.072 27.2102 150.072 27.4432C150.072 27.6686 150.129 27.8684 150.245 28.0426C150.362 28.2169 150.526 28.3542 150.737 28.4545C150.949 28.553 151.193 28.6023 151.469 28.6023ZM151.469 25.7699C151.697 25.7699 151.9 25.7216 152.08 25.625C152.26 25.5284 152.402 25.3968 152.506 25.2301C152.612 25.0616 152.666 24.8703 152.668 24.6562C152.666 24.4441 152.613 24.2566 152.509 24.0938C152.405 23.929 152.263 23.8011 152.083 23.7102C151.905 23.6174 151.701 23.571 151.469 23.571C151.238 23.571 151.032 23.6174 150.85 23.7102C150.67 23.8011 150.528 23.929 150.424 24.0938C150.322 24.2566 150.272 24.4441 150.273 24.6562C150.272 24.8703 150.323 25.0616 150.427 25.2301C150.533 25.3968 150.676 25.5284 150.856 25.625C151.038 25.7216 151.242 25.7699 151.469 25.7699ZM154.993 28.1278C154.881 28.1278 154.785 28.0881 154.703 28.0085C154.624 27.9271 154.584 27.8305 154.584 27.7188C154.584 27.6051 154.624 27.5085 154.703 27.429C154.785 27.3494 154.881 27.3097 154.993 27.3097C155.107 27.3097 155.203 27.3494 155.283 27.429C155.362 27.5085 155.402 27.6051 155.402 27.7188C155.402 27.7926 155.383 27.8608 155.345 27.9233C155.309 27.9858 155.26 28.036 155.197 28.0739C155.137 28.1098 155.069 28.1278 154.993 28.1278ZM154.993 25.1761C154.881 25.1761 154.785 25.1364 154.703 25.0568C154.624 24.9754 154.584 24.8788 154.584 24.767C154.584 24.6553 154.624 24.5597 154.703 24.4801C154.785 24.3987 154.881 24.358 154.993 24.358C155.107 24.358 155.203 24.3987 155.283 24.4801C155.362 24.5597 155.402 24.6553 155.402 24.767C155.402 24.8409 155.383 24.9091 155.345 24.9716C155.309 25.0341 155.26 25.0843 155.197 25.1222C155.137 25.1581 155.069 25.1761 154.993 25.1761ZM158.525 29.0795C158.116 29.0795 157.766 28.9621 157.477 28.7273C157.189 28.4905 156.967 28.1487 156.812 27.7017C156.658 27.2547 156.582 26.7178 156.582 26.0909C156.582 25.4659 156.658 24.9309 156.812 24.4858C156.967 24.0388 157.19 23.697 157.479 23.4602C157.771 23.2216 158.12 23.1023 158.525 23.1023C158.93 23.1023 159.278 23.2216 159.567 23.4602C159.859 23.697 160.082 24.0388 160.235 24.4858C160.39 24.9309 160.468 25.4659 160.468 26.0909C160.468 26.7178 160.39 27.2547 160.235 27.7017C160.082 28.1487 159.86 28.4905 159.57 28.7273C159.282 28.9621 158.934 29.0795 158.525 29.0795ZM158.525 28.6023C158.974 28.6023 159.324 28.3835 159.576 27.946C159.828 27.5066 159.954 26.8883 159.954 26.0909C159.954 25.5606 159.896 25.108 159.781 24.733C159.667 24.3561 159.503 24.0682 159.289 23.8693C159.077 23.6705 158.822 23.571 158.525 23.571C158.08 23.571 157.73 23.7926 157.477 24.2358C157.223 24.6771 157.096 25.2955 157.096 26.0909C157.096 26.6212 157.153 27.0739 157.266 27.4489C157.382 27.8239 157.546 28.1098 157.758 28.3068C157.972 28.5038 158.228 28.6023 158.525 28.6023ZM163.431 29.0795C163.022 29.0795 162.673 28.9621 162.383 28.7273C162.095 28.4905 161.873 28.1487 161.718 27.7017C161.565 27.2547 161.488 26.7178 161.488 26.0909C161.488 25.4659 161.565 24.9309 161.718 24.4858C161.873 24.0388 162.096 23.697 162.386 23.4602C162.677 23.2216 163.026 23.1023 163.431 23.1023C163.836 23.1023 164.184 23.2216 164.474 23.4602C164.765 23.697 164.988 24.0388 165.141 24.4858C165.297 24.9309 165.374 25.4659 165.374 26.0909C165.374 26.7178 165.297 27.2547 165.141 27.7017C164.988 28.1487 164.766 28.4905 164.477 28.7273C164.189 28.9621 163.84 29.0795 163.431 29.0795ZM163.431 28.6023C163.88 28.6023 164.23 28.3835 164.482 27.946C164.734 27.5066 164.86 26.8883 164.86 26.0909C164.86 25.5606 164.802 25.108 164.687 24.733C164.573 24.3561 164.409 24.0682 164.195 23.8693C163.983 23.6705 163.728 23.571 163.431 23.571C162.986 23.571 162.637 23.7926 162.383 24.2358C162.129 24.6771 162.002 25.2955 162.002 26.0909C162.002 26.6212 162.059 27.0739 162.173 27.4489C162.288 27.8239 162.452 28.1098 162.664 28.3068C162.878 28.5038 163.134 28.6023 163.431 28.6023Z" fill="#525252"/>
<line x1="219" y1="26" x2="219" y2="54" stroke="#525252" stroke-width="2" stroke-linecap="round"/>
<path d="M205.104 14.1193C204.461 14.1193 203.915 13.9446 203.463 13.5952C203.011 13.2429 202.666 12.733 202.427 12.0653C202.189 11.3949 202.069 10.5852 202.069 9.63636C202.069 8.69318 202.189 7.88778 202.427 7.22017C202.669 6.54972 203.015 6.03835 203.467 5.68608C203.922 5.33097 204.467 5.15341 205.104 5.15341C205.74 5.15341 206.284 5.33097 206.736 5.68608C207.19 6.03835 207.537 6.54972 207.775 7.22017C208.017 7.88778 208.138 8.69318 208.138 9.63636C208.138 10.5852 208.018 11.3949 207.78 12.0653C207.541 12.733 207.196 13.2429 206.744 13.5952C206.292 13.9446 205.746 14.1193 205.104 14.1193ZM205.104 13.1818C205.74 13.1818 206.234 12.875 206.586 12.2614C206.939 11.6477 207.115 10.7727 207.115 9.63636C207.115 8.88068 207.034 8.23722 206.872 7.70597C206.713 7.17472 206.483 6.76989 206.182 6.49148C205.883 6.21307 205.524 6.07386 205.104 6.07386C204.473 6.07386 203.98 6.38494 203.625 7.0071C203.27 7.62642 203.092 8.50284 203.092 9.63636C203.092 10.392 203.172 11.0341 203.331 11.5625C203.49 12.0909 203.719 12.4929 204.017 12.7685C204.318 13.044 204.68 13.1818 205.104 13.1818ZM212.535 5.15341C212.893 5.15625 213.251 5.22443 213.609 5.35795C213.967 5.49148 214.294 5.71307 214.589 6.02273C214.885 6.32955 215.122 6.74858 215.301 7.27983C215.48 7.81108 215.569 8.47727 215.569 9.27841C215.569 10.054 215.496 10.7429 215.348 11.3452C215.203 11.9446 214.993 12.4503 214.717 12.8622C214.444 13.2741 214.112 13.5866 213.72 13.7997C213.331 14.0128 212.89 14.1193 212.399 14.1193C211.91 14.1193 211.474 14.0227 211.091 13.8295C210.71 13.6335 210.398 13.3622 210.153 13.0156C209.912 12.6662 209.757 12.2614 209.689 11.8011H210.729C210.822 12.2017 211.008 12.5327 211.287 12.794C211.568 13.0526 211.939 13.1818 212.399 13.1818C213.072 13.1818 213.604 12.8878 213.993 12.2997C214.385 11.7116 214.581 10.8807 214.581 9.80682H214.513C214.354 10.0455 214.165 10.2514 213.946 10.4247C213.727 10.598 213.484 10.7315 213.217 10.8253C212.95 10.919 212.666 10.9659 212.365 10.9659C211.865 10.9659 211.406 10.8423 210.988 10.5952C210.574 10.3452 210.241 10.0028 209.991 9.56818C209.744 9.13068 209.621 8.63068 209.621 8.06818C209.621 7.53409 209.74 7.04545 209.979 6.60227C210.22 6.15625 210.558 5.80114 210.993 5.53693C211.43 5.27273 211.944 5.14489 212.535 5.15341ZM212.535 6.09091C212.177 6.09091 211.855 6.1804 211.568 6.35938C211.284 6.53551 211.058 6.77415 210.89 7.07528C210.726 7.37358 210.643 7.70455 210.643 8.06818C210.643 8.43182 210.723 8.76278 210.882 9.06108C211.044 9.35653 211.264 9.59233 211.542 9.76847C211.824 9.94176 212.143 10.0284 212.501 10.0284C212.771 10.0284 213.023 9.97585 213.256 9.87074C213.488 9.76278 213.692 9.61648 213.865 9.43182C214.041 9.24432 214.179 9.03267 214.278 8.79688C214.378 8.55824 214.427 8.30966 214.427 8.05114C214.427 7.71023 214.345 7.39062 214.18 7.09233C214.018 6.79403 213.794 6.55256 213.507 6.3679C213.223 6.18324 212.899 6.09091 212.535 6.09091ZM217.995 12.8835C217.785 12.8835 217.605 12.8082 217.454 12.6577C217.303 12.5071 217.228 12.3267 217.228 12.1165C217.228 11.9062 217.303 11.7259 217.454 11.5753C217.605 11.4247 217.785 11.3494 217.995 11.3494C218.205 11.3494 218.386 11.4247 218.536 11.5753C218.687 11.7259 218.762 11.9062 218.762 12.1165C218.762 12.2557 218.727 12.3835 218.656 12.5C218.588 12.6165 218.495 12.7102 218.379 12.7812C218.265 12.8494 218.137 12.8835 217.995 12.8835ZM217.995 8.46875C217.785 8.46875 217.605 8.39347 217.454 8.2429C217.303 8.09233 217.228 7.91193 217.228 7.7017C217.228 7.49148 217.303 7.31108 217.454 7.16051C217.605 7.00994 217.785 6.93466 217.995 6.93466C218.205 6.93466 218.386 7.00994 218.536 7.16051C218.687 7.31108 218.762 7.49148 218.762 7.7017C218.762 7.84091 218.727 7.96875 218.656 8.08523C218.588 8.2017 218.495 8.29545 218.379 8.36648C218.265 8.43466 218.137 8.46875 217.995 8.46875ZM223.396 14.1193C222.754 14.1193 222.208 13.9446 221.756 13.5952C221.304 13.2429 220.959 12.733 220.72 12.0653C220.482 11.3949 220.362 10.5852 220.362 9.63636C220.362 8.69318 220.482 7.88778 220.72 7.22017C220.962 6.54972 221.308 6.03835 221.76 5.68608C222.215 5.33097 222.76 5.15341 223.396 5.15341C224.033 5.15341 224.577 5.33097 225.029 5.68608C225.483 6.03835 225.83 6.54972 226.068 7.22017C226.31 7.88778 226.431 8.69318 226.431 9.63636C226.431 10.5852 226.311 11.3949 226.073 12.0653C225.834 12.733 225.489 13.2429 225.037 13.5952C224.585 13.9446 224.039 14.1193 223.396 14.1193ZM223.396 13.1818C224.033 13.1818 224.527 12.875 224.879 12.2614C225.232 11.6477 225.408 10.7727 225.408 9.63636C225.408 8.88068 225.327 8.23722 225.165 7.70597C225.006 7.17472 224.776 6.76989 224.475 6.49148C224.176 6.21307 223.817 6.07386 223.396 6.07386C222.766 6.07386 222.273 6.38494 221.918 7.0071C221.563 7.62642 221.385 8.50284 221.385 9.63636C221.385 10.392 221.465 11.0341 221.624 11.5625C221.783 12.0909 222.012 12.4929 222.31 12.7685C222.611 13.044 222.973 13.1818 223.396 13.1818ZM230.896 14.1193C230.254 14.1193 229.708 13.9446 229.256 13.5952C228.804 13.2429 228.459 12.733 228.22 12.0653C227.982 11.3949 227.862 10.5852 227.862 9.63636C227.862 8.69318 227.982 7.88778 228.22 7.22017C228.462 6.54972 228.808 6.03835 229.26 5.68608C229.715 5.33097 230.26 5.15341 230.896 5.15341C231.533 5.15341 232.077 5.33097 232.529 5.68608C232.983 6.03835 233.33 6.54972 233.568 7.22017C233.81 7.88778 233.931 8.69318 233.931 9.63636C233.931 10.5852 233.811 11.3949 233.573 12.0653C233.334 12.733 232.989 13.2429 232.537 13.5952C232.085 13.9446 231.539 14.1193 230.896 14.1193ZM230.896 13.1818C231.533 13.1818 232.027 12.875 232.379 12.2614C232.732 11.6477 232.908 10.7727 232.908 9.63636C232.908 8.88068 232.827 8.23722 232.665 7.70597C232.506 7.17472 232.276 6.76989 231.975 6.49148C231.676 6.21307 231.317 6.07386 230.896 6.07386C230.266 6.07386 229.773 6.38494 229.418 7.0071C229.063 7.62642 228.885 8.50284 228.885 9.63636C228.885 10.392 228.965 11.0341 229.124 11.5625C229.283 12.0909 229.512 12.4929 229.81 12.7685C230.111 13.044 230.473 13.1818 230.896 13.1818Z" fill="#525252"/>
<line x1="408" y1="26" x2="408" y2="54" stroke="#525252" stroke-width="2" stroke-linecap="round"/>
<path d="M395.397 5.27273V14H394.341V6.38068H394.289L392.159 7.79545V6.72159L394.341 5.27273H395.397ZM397.907 14V13.233L400.788 10.0795C401.126 9.71023 401.404 9.3892 401.623 9.11648C401.842 8.84091 402.004 8.58239 402.109 8.34091C402.217 8.09659 402.271 7.84091 402.271 7.57386C402.271 7.26705 402.197 7.00142 402.049 6.77699C401.904 6.55256 401.706 6.37926 401.453 6.2571C401.2 6.13494 400.916 6.07386 400.6 6.07386C400.265 6.07386 399.973 6.14347 399.723 6.28267C399.475 6.41903 399.284 6.6108 399.147 6.85795C399.014 7.10511 398.947 7.39489 398.947 7.72727H397.941C397.941 7.21591 398.059 6.76705 398.295 6.38068C398.531 5.99432 398.852 5.69318 399.258 5.47727C399.667 5.26136 400.126 5.15341 400.635 5.15341C401.146 5.15341 401.599 5.26136 401.994 5.47727C402.389 5.69318 402.699 5.98437 402.923 6.35085C403.147 6.71733 403.26 7.125 403.26 7.57386C403.26 7.89489 403.201 8.20881 403.085 8.51562C402.971 8.8196 402.772 9.15909 402.488 9.53409C402.207 9.90625 401.816 10.3608 401.316 10.8977L399.356 12.9943V13.0625H403.413V14H397.907ZM405.923 12.8835C405.713 12.8835 405.532 12.8082 405.382 12.6577C405.231 12.5071 405.156 12.3267 405.156 12.1165C405.156 11.9062 405.231 11.7259 405.382 11.5753C405.532 11.4247 405.713 11.3494 405.923 11.3494C406.133 11.3494 406.314 11.4247 406.464 11.5753C406.615 11.7259 406.69 11.9062 406.69 12.1165C406.69 12.2557 406.654 12.3835 406.583 12.5C406.515 12.6165 406.423 12.7102 406.306 12.7812C406.193 12.8494 406.065 12.8835 405.923 12.8835ZM405.923 8.46875C405.713 8.46875 405.532 8.39347 405.382 8.2429C405.231 8.09233 405.156 7.91193 405.156 7.7017C405.156 7.49148 405.231 7.31108 405.382 7.16051C405.532 7.00994 405.713 6.93466 405.923 6.93466C406.133 6.93466 406.314 7.00994 406.464 7.16051C406.615 7.31108 406.69 7.49148 406.69 7.7017C406.69 7.84091 406.654 7.96875 406.583 8.08523C406.515 8.2017 406.423 8.29545 406.306 8.36648C406.193 8.43466 406.065 8.46875 405.923 8.46875ZM411.324 14.1193C410.682 14.1193 410.135 13.9446 409.684 13.5952C409.232 13.2429 408.887 12.733 408.648 12.0653C408.409 11.3949 408.29 10.5852 408.29 9.63636C408.29 8.69318 408.409 7.88778 408.648 7.22017C408.89 6.54972 409.236 6.03835 409.688 5.68608C410.142 5.33097 410.688 5.15341 411.324 5.15341C411.961 5.15341 412.505 5.33097 412.956 5.68608C413.411 6.03835 413.757 6.54972 413.996 7.22017C414.238 7.88778 414.358 8.69318 414.358 9.63636C414.358 10.5852 414.239 11.3949 414 12.0653C413.762 12.733 413.417 13.2429 412.965 13.5952C412.513 13.9446 411.966 14.1193 411.324 14.1193ZM411.324 13.1818C411.961 13.1818 412.455 12.875 412.807 12.2614C413.159 11.6477 413.336 10.7727 413.336 9.63636C413.336 8.88068 413.255 8.23722 413.093 7.70597C412.934 7.17472 412.703 6.76989 412.402 6.49148C412.104 6.21307 411.745 6.07386 411.324 6.07386C410.694 6.07386 410.201 6.38494 409.846 7.0071C409.49 7.62642 409.313 8.50284 409.313 9.63636C409.313 10.392 409.392 11.0341 409.551 11.5625C409.711 12.0909 409.939 12.4929 410.238 12.7685C410.539 13.044 410.901 13.1818 411.324 13.1818ZM418.824 14.1193C418.182 14.1193 417.635 13.9446 417.184 13.5952C416.732 13.2429 416.387 12.733 416.148 12.0653C415.909 11.3949 415.79 10.5852 415.79 9.63636C415.79 8.69318 415.909 7.88778 416.148 7.22017C416.39 6.54972 416.736 6.03835 417.188 5.68608C417.642 5.33097 418.188 5.15341 418.824 5.15341C419.461 5.15341 420.005 5.33097 420.456 5.68608C420.911 6.03835 421.257 6.54972 421.496 7.22017C421.738 7.88778 421.858 8.69318 421.858 9.63636C421.858 10.5852 421.739 11.3949 421.5 12.0653C421.262 12.733 420.917 13.2429 420.465 13.5952C420.013 13.9446 419.466 14.1193 418.824 14.1193ZM418.824 13.1818C419.461 13.1818 419.955 12.875 420.307 12.2614C420.659 11.6477 420.836 10.7727 420.836 9.63636C420.836 8.88068 420.755 8.23722 420.593 7.70597C420.434 7.17472 420.203 6.76989 419.902 6.49148C419.604 6.21307 419.245 6.07386 418.824 6.07386C418.194 6.07386 417.701 6.38494 417.346 7.0071C416.99 7.62642 416.813 8.50284 416.813 9.63636C416.813 10.392 416.892 11.0341 417.051 11.5625C417.211 12.0909 417.439 12.4929 417.738 12.7685C418.039 13.044 418.401 13.1818 418.824 13.1818Z" fill="#525252"/>
<line x1="597" y1="26" x2="597" y2="54" stroke="#525252" stroke-width="2" stroke-linecap="round"/>
<path d="M584.38 5.27273V14H583.323V6.38068H583.272L581.141 7.79545V6.72159L583.323 5.27273H584.38ZM589.617 14.1193C589.117 14.1193 588.667 14.0199 588.266 13.821C587.866 13.6222 587.545 13.3494 587.303 13.0028C587.062 12.6562 586.93 12.2614 586.907 11.8182H587.93C587.969 12.2131 588.148 12.5398 588.466 12.7983C588.787 13.054 589.171 13.1818 589.617 13.1818C589.975 13.1818 590.293 13.098 590.572 12.9304C590.853 12.7628 591.073 12.5327 591.232 12.2401C591.394 11.9446 591.475 11.6108 591.475 11.2386C591.475 10.858 591.391 10.5185 591.224 10.2202C591.059 9.91903 590.831 9.68182 590.542 9.50852C590.252 9.33523 589.921 9.24716 589.549 9.24432C589.282 9.24148 589.008 9.28267 588.726 9.3679C588.445 9.45028 588.214 9.55682 588.032 9.6875L587.043 9.56818L587.572 5.27273H592.106V6.21023H588.458L588.151 8.78409H588.202C588.381 8.64205 588.606 8.52415 588.876 8.4304C589.145 8.33665 589.427 8.28977 589.719 8.28977C590.253 8.28977 590.729 8.41761 591.147 8.6733C591.567 8.92614 591.897 9.27273 592.135 9.71307C592.377 10.1534 592.498 10.6562 592.498 11.2216C592.498 11.7784 592.373 12.2756 592.123 12.7131C591.876 13.1477 591.535 13.4915 591.1 13.7443C590.665 13.9943 590.171 14.1193 589.617 14.1193ZM594.941 12.8835C594.73 12.8835 594.55 12.8082 594.399 12.6577C594.249 12.5071 594.173 12.3267 594.173 12.1165C594.173 11.9062 594.249 11.7259 594.399 11.5753C594.55 11.4247 594.73 11.3494 594.941 11.3494C595.151 11.3494 595.331 11.4247 595.482 11.5753C595.632 11.7259 595.708 11.9062 595.708 12.1165C595.708 12.2557 595.672 12.3835 595.601 12.5C595.533 12.6165 595.441 12.7102 595.324 12.7812C595.21 12.8494 595.083 12.8835 594.941 12.8835ZM594.941 8.46875C594.73 8.46875 594.55 8.39347 594.399 8.2429C594.249 8.09233 594.173 7.91193 594.173 7.7017C594.173 7.49148 594.249 7.31108 594.399 7.16051C594.55 7.00994 594.73 6.93466 594.941 6.93466C595.151 6.93466 595.331 7.00994 595.482 7.16051C595.632 7.31108 595.708 7.49148 595.708 7.7017C595.708 7.84091 595.672 7.96875 595.601 8.08523C595.533 8.2017 595.441 8.29545 595.324 8.36648C595.21 8.43466 595.083 8.46875 594.941 8.46875ZM600.342 14.1193C599.7 14.1193 599.153 13.9446 598.701 13.5952C598.249 13.2429 597.904 12.733 597.666 12.0653C597.427 11.3949 597.308 10.5852 597.308 9.63636C597.308 8.69318 597.427 7.88778 597.666 7.22017C597.907 6.54972 598.254 6.03835 598.705 5.68608C599.16 5.33097 599.705 5.15341 600.342 5.15341C600.978 5.15341 601.522 5.33097 601.974 5.68608C602.428 6.03835 602.775 6.54972 603.014 7.22017C603.255 7.88778 603.376 8.69318 603.376 9.63636C603.376 10.5852 603.257 11.3949 603.018 12.0653C602.779 12.733 602.434 13.2429 601.982 13.5952C601.531 13.9446 600.984 14.1193 600.342 14.1193ZM600.342 13.1818C600.978 13.1818 601.472 12.875 601.825 12.2614C602.177 11.6477 602.353 10.7727 602.353 9.63636C602.353 8.88068 602.272 8.23722 602.11 7.70597C601.951 7.17472 601.721 6.76989 601.42 6.49148C601.122 6.21307 600.762 6.07386 600.342 6.07386C599.711 6.07386 599.218 6.38494 598.863 7.0071C598.508 7.62642 598.33 8.50284 598.33 9.63636C598.33 10.392 598.41 11.0341 598.569 11.5625C598.728 12.0909 598.957 12.4929 599.255 12.7685C599.556 13.044 599.919 13.1818 600.342 13.1818ZM607.842 14.1193C607.2 14.1193 606.653 13.9446 606.201 13.5952C605.749 13.2429 605.404 12.733 605.166 12.0653C604.927 11.3949 604.808 10.5852 604.808 9.63636C604.808 8.69318 604.927 7.88778 605.166 7.22017C605.407 6.54972 605.754 6.03835 606.205 5.68608C606.66 5.33097 607.205 5.15341 607.842 5.15341C608.478 5.15341 609.022 5.33097 609.474 5.68608C609.928 6.03835 610.275 6.54972 610.514 7.22017C610.755 7.88778 610.876 8.69318 610.876 9.63636C610.876 10.5852 610.757 11.3949 610.518 12.0653C610.279 12.733 609.934 13.2429 609.482 13.5952C609.031 13.9446 608.484 14.1193 607.842 14.1193ZM607.842 13.1818C608.478 13.1818 608.972 12.875 609.325 12.2614C609.677 11.6477 609.853 10.7727 609.853 9.63636C609.853 8.88068 609.772 8.23722 609.61 7.70597C609.451 7.17472 609.221 6.76989 608.92 6.49148C608.622 6.21307 608.262 6.07386 607.842 6.07386C607.211 6.07386 606.718 6.38494 606.363 7.0071C606.008 7.62642 605.83 8.50284 605.83 9.63636C605.83 10.392 605.91 11.0341 606.069 11.5625C606.228 12.0909 606.457 12.4929 606.755 12.7685C607.056 13.044 607.419 13.1818 607.842 13.1818Z" fill="#525252"/>
<line x1="786" y1="26" x2="786" y2="54" stroke="#525252" stroke-width="2" stroke-linecap="round"/>
<path d="M773.38 5.27273V14H772.323V6.38068H772.272L770.141 7.79545V6.72159L772.323 5.27273H773.38ZM778.617 14.1193C778.117 14.1193 777.667 14.0199 777.266 13.821C776.866 13.6222 776.545 13.3494 776.303 13.0028C776.062 12.6562 775.93 12.2614 775.907 11.8182H776.93C776.969 12.2131 777.148 12.5398 777.466 12.7983C777.787 13.054 778.171 13.1818 778.617 13.1818C778.975 13.1818 779.293 13.098 779.572 12.9304C779.853 12.7628 780.073 12.5327 780.232 12.2401C780.394 11.9446 780.475 11.6108 780.475 11.2386C780.475 10.858 780.391 10.5185 780.224 10.2202C780.059 9.91903 779.831 9.68182 779.542 9.50852C779.252 9.33523 778.921 9.24716 778.549 9.24432C778.282 9.24148 778.008 9.28267 777.726 9.3679C777.445 9.45028 777.214 9.55682 777.032 9.6875L776.043 9.56818L776.572 5.27273H781.106V6.21023H777.458L777.151 8.78409H777.202C777.381 8.64205 777.606 8.52415 777.876 8.4304C778.145 8.33665 778.427 8.28977 778.719 8.28977C779.253 8.28977 779.729 8.41761 780.147 8.6733C780.567 8.92614 780.897 9.27273 781.135 9.71307C781.377 10.1534 781.498 10.6562 781.498 11.2216C781.498 11.7784 781.373 12.2756 781.123 12.7131C780.876 13.1477 780.535 13.4915 780.1 13.7443C779.665 13.9943 779.171 14.1193 778.617 14.1193ZM783.941 12.8835C783.73 12.8835 783.55 12.8082 783.399 12.6577C783.249 12.5071 783.173 12.3267 783.173 12.1165C783.173 11.9062 783.249 11.7259 783.399 11.5753C783.55 11.4247 783.73 11.3494 783.941 11.3494C784.151 11.3494 784.331 11.4247 784.482 11.5753C784.632 11.7259 784.708 11.9062 784.708 12.1165C784.708 12.2557 784.672 12.3835 784.601 12.5C784.533 12.6165 784.441 12.7102 784.324 12.7812C784.21 12.8494 784.083 12.8835 783.941 12.8835ZM783.941 8.46875C783.73 8.46875 783.55 8.39347 783.399 8.2429C783.249 8.09233 783.173 7.91193 783.173 7.7017C783.173 7.49148 783.249 7.31108 783.399 7.16051C783.55 7.00994 783.73 6.93466 783.941 6.93466C784.151 6.93466 784.331 7.00994 784.482 7.16051C784.632 7.31108 784.708 7.49148 784.708 7.7017C784.708 7.84091 784.672 7.96875 784.601 8.08523C784.533 8.2017 784.441 8.29545 784.324 8.36648C784.21 8.43466 784.083 8.46875 783.941 8.46875ZM789.342 14.1193C788.7 14.1193 788.153 13.9446 787.701 13.5952C787.249 13.2429 786.904 12.733 786.666 12.0653C786.427 11.3949 786.308 10.5852 786.308 9.63636C786.308 8.69318 786.427 7.88778 786.666 7.22017C786.907 6.54972 787.254 6.03835 787.705 5.68608C788.16 5.33097 788.705 5.15341 789.342 5.15341C789.978 5.15341 790.522 5.33097 790.974 5.68608C791.428 6.03835 791.775 6.54972 792.014 7.22017C792.255 7.88778 792.376 8.69318 792.376 9.63636C792.376 10.5852 792.257 11.3949 792.018 12.0653C791.779 12.733 791.434 13.2429 790.982 13.5952C790.531 13.9446 789.984 14.1193 789.342 14.1193ZM789.342 13.1818C789.978 13.1818 790.472 12.875 790.825 12.2614C791.177 11.6477 791.353 10.7727 791.353 9.63636C791.353 8.88068 791.272 8.23722 791.11 7.70597C790.951 7.17472 790.721 6.76989 790.42 6.49148C790.122 6.21307 789.762 6.07386 789.342 6.07386C788.711 6.07386 788.218 6.38494 787.863 7.0071C787.508 7.62642 787.33 8.50284 787.33 9.63636C787.33 10.392 787.41 11.0341 787.569 11.5625C787.728 12.0909 787.957 12.4929 788.255 12.7685C788.556 13.044 788.919 13.1818 789.342 13.1818ZM796.842 14.1193C796.2 14.1193 795.653 13.9446 795.201 13.5952C794.749 13.2429 794.404 12.733 794.166 12.0653C793.927 11.3949 793.808 10.5852 793.808 9.63636C793.808 8.69318 793.927 7.88778 794.166 7.22017C794.407 6.54972 794.754 6.03835 795.205 5.68608C795.66 5.33097 796.205 5.15341 796.842 5.15341C797.478 5.15341 798.022 5.33097 798.474 5.68608C798.928 6.03835 799.275 6.54972 799.514 7.22017C799.755 7.88778 799.876 8.69318 799.876 9.63636C799.876 10.5852 799.757 11.3949 799.518 12.0653C799.279 12.733 798.934 13.2429 798.482 13.5952C798.031 13.9446 797.484 14.1193 796.842 14.1193ZM796.842 13.1818C797.478 13.1818 797.972 12.875 798.325 12.2614C798.677 11.6477 798.853 10.7727 798.853 9.63636C798.853 8.88068 798.772 8.23722 798.61 7.70597C798.451 7.17472 798.221 6.76989 797.92 6.49148C797.622 6.21307 797.262 6.07386 796.842 6.07386C796.211 6.07386 795.718 6.38494 795.363 7.0071C795.008 7.62642 794.83 8.50284 794.83 9.63636C794.83 10.392 794.91 11.0341 795.069 11.5625C795.228 12.0909 795.457 12.4929 795.755 12.7685C796.056 13.044 796.419 13.1818 796.842 13.1818Z" fill="#525252"/>
<line x1="61.25" y1="38.25" x2="61.25" y2="43.75" stroke="#525252" stroke-width="0.5" stroke-linecap="round"/>
<line x1="124.25" y1="38.25" x2="124.25" y2="43.75" stroke="#525252" stroke-width="0.5" stroke-linecap="round"/>
<line x1="187.25" y1="38.25" x2="187.25" y2="43.75" stroke="#525252" stroke-width="0.5" stroke-linecap="round"/>
<line x1="250.25" y1="38.25" x2="250.25" y2="43.75" stroke="#525252" stroke-width="0.5" stroke-linecap="round"/>
<line x1="313.25" y1="38.25" x2="313.25" y2="43.75" stroke="#525252" stroke-width="0.5" stroke-linecap="round"/>
<line x1="376.25" y1="38.25" x2="376.25" y2="43.75" stroke="#525252" stroke-width="0.5" stroke-linecap="round"/>
<line x1="439.25" y1="38.25" x2="439.25" y2="43.75" stroke="#525252" stroke-width="0.5" stroke-linecap="round"/>
<line x1="502.25" y1="38.25" x2="502.25" y2="43.75" stroke="#525252" stroke-width="0.5" stroke-linecap="round"/>
<line x1="565.25" y1="38.25" x2="565.25" y2="43.75" stroke="#525252" stroke-width="0.5" stroke-linecap="round"/>
<line x1="691.25" y1="38.25" x2="691.25" y2="43.75" stroke="#525252" stroke-width="0.5" stroke-linecap="round"/>
<line x1="754.25" y1="38.25" x2="754.25" y2="43.75" stroke="#525252" stroke-width="0.5" stroke-linecap="round"/>
</svg>
