<svg width="814" height="66" viewBox="0 0 814 66" fill="none" xmlns="http://www.w3.org/2000/svg">
<path d="M29 39.5H786" stroke="#6B4D57"/>
<line x1="30" y1="24" x2="30" y2="52" stroke="#525252" stroke-width="2" stroke-linecap="round"/>
<path d="M16.1035 12.1193C15.4615 12.1193 14.9146 11.9446 14.4629 11.5952C14.0112 11.2429 13.666 10.733 13.4274 10.0653C13.1887 9.39489 13.0694 8.58523 13.0694 7.63636C13.0694 6.69318 13.1887 5.88778 13.4274 5.22017C13.6689 4.54972 14.0154 4.03835 14.4672 3.68608C14.9217 3.33097 15.4672 3.15341 16.1035 3.15341C16.7399 3.15341 17.2839 3.33097 17.7356 3.68608C18.1902 4.03835 18.5368 4.54972 18.7754 5.22017C19.0169 5.88778 19.1376 6.69318 19.1376 7.63636C19.1376 8.58523 19.0183 9.39489 18.7797 10.0653C18.541 10.733 18.1958 11.2429 17.7441 11.5952C17.2924 11.9446 16.7456 12.1193 16.1035 12.1193ZM16.1035 11.1818C16.7399 11.1818 17.2342 10.875 17.5865 10.2614C17.9387 9.64773 18.1149 8.77273 18.1149 7.63636C18.1149 6.88068 18.0339 6.23722 17.872 5.70597C17.7129 5.17472 17.4828 4.76989 17.1816 4.49148C16.8833 4.21307 16.524 4.07386 16.1035 4.07386C15.4728 4.07386 14.9799 4.38494 14.6248 5.0071C14.2697 5.62642 14.0922 6.50284 14.0922 7.63636C14.0922 8.39205 14.1717 9.03409 14.3308 9.5625C14.4899 10.0909 14.7186 10.4929 15.0169 10.7685C15.318 11.044 15.6802 11.1818 16.1035 11.1818ZM23.6547 12.1193C23.2967 12.1136 22.9387 12.0455 22.5808 11.9148C22.2228 11.7841 21.8961 11.5639 21.6007 11.2543C21.3052 10.9418 21.068 10.5199 20.889 9.98864C20.71 9.45455 20.6206 8.78409 20.6206 7.97727C20.6206 7.20455 20.693 6.51989 20.8379 5.9233C20.9828 5.32386 21.193 4.8196 21.4686 4.41051C21.7441 3.99858 22.0765 3.68608 22.4657 3.47301C22.8578 3.25994 23.2995 3.15341 23.791 3.15341C24.2797 3.15341 24.7143 3.25142 25.095 3.44744C25.4785 3.64062 25.791 3.91051 26.0325 4.2571C26.274 4.60369 26.4302 5.00284 26.5012 5.45455H25.4615C25.3649 5.0625 25.1774 4.73722 24.899 4.47869C24.6206 4.22017 24.2512 4.09091 23.791 4.09091C23.1149 4.09091 22.5822 4.38494 22.193 4.97301C21.8066 5.56108 21.612 6.38636 21.6092 7.44886H21.6774C21.8365 7.20739 22.0254 7.00142 22.2441 6.83097C22.4657 6.65767 22.71 6.52415 22.9771 6.4304C23.2441 6.33665 23.5268 6.28977 23.8251 6.28977C24.3251 6.28977 24.7825 6.41477 25.1973 6.66477C25.612 6.91193 25.9444 7.25426 26.1944 7.69176C26.4444 8.12642 26.5694 8.625 26.5694 9.1875C26.5694 9.72727 26.4487 10.2216 26.2072 10.6705C25.9657 11.1165 25.6262 11.4716 25.1887 11.7358C24.7541 11.9972 24.2427 12.125 23.6547 12.1193ZM23.6547 11.1818C24.0126 11.1818 24.3336 11.0923 24.6177 10.9134C24.9047 10.7344 25.1305 10.4943 25.2953 10.1932C25.4629 9.89205 25.5467 9.55682 25.5467 9.1875C25.5467 8.8267 25.4657 8.49858 25.3038 8.20312C25.1447 7.90483 24.9245 7.66761 24.6433 7.49148C24.3649 7.31534 24.0467 7.22727 23.6887 7.22727C23.4189 7.22727 23.1674 7.28125 22.9345 7.3892C22.7015 7.49432 22.497 7.6392 22.3208 7.82386C22.1475 8.00852 22.0112 8.22017 21.9118 8.45881C21.8123 8.6946 21.7626 8.94318 21.7626 9.20455C21.7626 9.55114 21.8436 9.875 22.0055 10.1761C22.1703 10.4773 22.3947 10.7202 22.6788 10.9048C22.9657 11.0895 23.291 11.1818 23.6547 11.1818ZM28.9952 10.8835C28.785 10.8835 28.6046 10.8082 28.454 10.6577C28.3034 10.5071 28.2282 10.3267 28.2282 10.1165C28.2282 9.90625 28.3034 9.72585 28.454 9.57528C28.6046 9.42472 28.785 9.34943 28.9952 9.34943C29.2054 9.34943 29.3858 9.42472 29.5364 9.57528C29.687 9.72585 29.7623 9.90625 29.7623 10.1165C29.7623 10.2557 29.7267 10.3835 29.6557 10.5C29.5875 10.6165 29.4952 10.7102 29.3787 10.7812C29.2651 10.8494 29.1373 10.8835 28.9952 10.8835ZM28.9952 6.46875C28.785 6.46875 28.6046 6.39347 28.454 6.2429C28.3034 6.09233 28.2282 5.91193 28.2282 5.7017C28.2282 5.49148 28.3034 5.31108 28.454 5.16051C28.6046 5.00994 28.785 4.93466 28.9952 4.93466C29.2054 4.93466 29.3858 5.00994 29.5364 5.16051C29.687 5.31108 29.7623 5.49148 29.7623 5.7017C29.7623 5.84091 29.7267 5.96875 29.6557 6.08523C29.5875 6.2017 29.4952 6.29545 29.3787 6.36648C29.2651 6.43466 29.1373 6.46875 28.9952 6.46875ZM34.3965 12.1193C33.7544 12.1193 33.2076 11.9446 32.7559 11.5952C32.3042 11.2429 31.959 10.733 31.7203 10.0653C31.4817 9.39489 31.3624 8.58523 31.3624 7.63636C31.3624 6.69318 31.4817 5.88778 31.7203 5.22017C31.9618 4.54972 32.3084 4.03835 32.7601 3.68608C33.2147 3.33097 33.7601 3.15341 34.3965 3.15341C35.0328 3.15341 35.5769 3.33097 36.0286 3.68608C36.4831 4.03835 36.8297 4.54972 37.0684 5.22017C37.3098 5.88778 37.4306 6.69318 37.4306 7.63636C37.4306 8.58523 37.3113 9.39489 37.0726 10.0653C36.834 10.733 36.4888 11.2429 36.0371 11.5952C35.5854 11.9446 35.0385 12.1193 34.3965 12.1193ZM34.3965 11.1818C35.0328 11.1818 35.5272 10.875 35.8794 10.2614C36.2317 9.64773 36.4078 8.77273 36.4078 7.63636C36.4078 6.88068 36.3269 6.23722 36.165 5.70597C36.0059 5.17472 35.7757 4.76989 35.4746 4.49148C35.1763 4.21307 34.8169 4.07386 34.3965 4.07386C33.7658 4.07386 33.2729 4.38494 32.9178 5.0071C32.5627 5.62642 32.3851 6.50284 32.3851 7.63636C32.3851 8.39205 32.4647 9.03409 32.6238 9.5625C32.7828 10.0909 33.0115 10.4929 33.3098 10.7685C33.611 11.044 33.9732 11.1818 34.3965 11.1818ZM41.8965 12.1193C41.2544 12.1193 40.7076 11.9446 40.2559 11.5952C39.8042 11.2429 39.459 10.733 39.2203 10.0653C38.9817 9.39489 38.8624 8.58523 38.8624 7.63636C38.8624 6.69318 38.9817 5.88778 39.2203 5.22017C39.4618 4.54972 39.8084 4.03835 40.2601 3.68608C40.7147 3.33097 41.2601 3.15341 41.8965 3.15341C42.5328 3.15341 43.0769 3.33097 43.5286 3.68608C43.9831 4.03835 44.3297 4.54972 44.5684 5.22017C44.8098 5.88778 44.9306 6.69318 44.9306 7.63636C44.9306 8.58523 44.8113 9.39489 44.5726 10.0653C44.334 10.733 43.9888 11.2429 43.5371 11.5952C43.0854 11.9446 42.5385 12.1193 41.8965 12.1193ZM41.8965 11.1818C42.5328 11.1818 43.0272 10.875 43.3794 10.2614C43.7317 9.64773 43.9078 8.77273 43.9078 7.63636C43.9078 6.88068 43.8269 6.23722 43.665 5.70597C43.5059 5.17472 43.2757 4.76989 42.9746 4.49148C42.6763 4.21307 42.3169 4.07386 41.8965 4.07386C41.2658 4.07386 40.7729 4.38494 40.4178 5.0071C40.0627 5.62642 39.8851 6.50284 39.8851 7.63636C39.8851 8.39205 39.9647 9.03409 40.1238 9.5625C40.2828 10.0909 40.5115 10.4929 40.8098 10.7685C41.111 11.044 41.4732 11.1818 41.8965 11.1818Z" fill="#525252"/>
<line x1="92.5" y1="32.5" x2="92.5" y2="46.5" stroke="#525252" stroke-linecap="round"/>
<path d="M83.9819 27.0795C83.5728 27.0795 83.2234 26.9621 82.9336 26.7273C82.6457 26.4905 82.4241 26.1487 82.2688 25.7017C82.1154 25.2547 82.0387 24.7178 82.0387 24.0909C82.0387 23.4659 82.1154 22.9309 82.2688 22.4858C82.4241 22.0388 82.6467 21.697 82.9364 21.4602C83.2281 21.2216 83.5766 21.1023 83.9819 21.1023C84.3872 21.1023 84.7347 21.2216 85.0245 21.4602C85.3162 21.697 85.5387 22.0388 85.6921 22.4858C85.8474 22.9309 85.9251 23.4659 85.9251 24.0909C85.9251 24.7178 85.8474 25.2547 85.6921 25.7017C85.5387 26.1487 85.3171 26.4905 85.0273 26.7273C84.7395 26.9621 84.391 27.0795 83.9819 27.0795ZM83.9819 26.6023C84.4308 26.6023 84.7811 26.3835 85.033 25.946C85.2849 25.5066 85.4109 24.8883 85.4109 24.0909C85.4109 23.5606 85.3531 23.108 85.2376 22.733C85.1239 22.3561 84.9601 22.0682 84.7461 21.8693C84.534 21.6705 84.2792 21.571 83.9819 21.571C83.5368 21.571 83.1874 21.7926 82.9336 22.2358C82.6798 22.6771 82.5529 23.2955 82.5529 24.0909C82.5529 24.6212 82.6097 25.0739 82.7234 25.4489C82.8389 25.8239 83.0027 26.1098 83.2148 26.3068C83.4289 26.5038 83.6845 26.6023 83.9819 26.6023ZM87.0927 27L89.7433 21.696V21.6591H86.6893V21.1818H90.3001V21.6818L87.6523 27H87.0927ZM91.5827 26.1278C91.471 26.1278 91.3744 26.0881 91.293 26.0085C91.2134 25.9271 91.1737 25.8305 91.1737 25.7188C91.1737 25.6051 91.2134 25.5085 91.293 25.429C91.3744 25.3494 91.471 25.3097 91.5827 25.3097C91.6964 25.3097 91.793 25.3494 91.8725 25.429C91.9521 25.5085 91.9918 25.6051 91.9918 25.7188C91.9918 25.7926 91.9729 25.8608 91.935 25.9233C91.899 25.9858 91.8498 26.036 91.7873 26.0739C91.7267 26.1098 91.6585 26.1278 91.5827 26.1278ZM91.5827 23.1761C91.471 23.1761 91.3744 23.1364 91.293 23.0568C91.2134 22.9754 91.1737 22.8788 91.1737 22.767C91.1737 22.6553 91.2134 22.5597 91.293 22.4801C91.3744 22.3987 91.471 22.358 91.5827 22.358C91.6964 22.358 91.793 22.3987 91.8725 22.4801C91.9521 22.5597 91.9918 22.6553 91.9918 22.767C91.9918 22.8409 91.9729 22.9091 91.935 22.9716C91.899 23.0341 91.8498 23.0843 91.7873 23.1222C91.7267 23.1581 91.6585 23.1761 91.5827 23.1761ZM95.1147 27.0795C94.7056 27.0795 94.3562 26.9621 94.0664 26.7273C93.7785 26.4905 93.5569 26.1487 93.4016 25.7017C93.2482 25.2547 93.1715 24.7178 93.1715 24.0909C93.1715 23.4659 93.2482 22.9309 93.4016 22.4858C93.5569 22.0388 93.7795 21.697 94.0692 21.4602C94.3609 21.2216 94.7094 21.1023 95.1147 21.1023C95.52 21.1023 95.8675 21.2216 96.1573 21.4602C96.449 21.697 96.6715 22.0388 96.8249 22.4858C96.9802 22.9309 97.0579 23.4659 97.0579 24.0909C97.0579 24.7178 96.9802 25.2547 96.8249 25.7017C96.6715 26.1487 96.4499 26.4905 96.1602 26.7273C95.8723 26.9621 95.5238 27.0795 95.1147 27.0795ZM95.1147 26.6023C95.5636 26.6023 95.9139 26.3835 96.1658 25.946C96.4177 25.5066 96.5437 24.8883 96.5437 24.0909C96.5437 23.5606 96.4859 23.108 96.3704 22.733C96.2567 22.3561 96.0929 22.0682 95.8789 21.8693C95.6668 21.6705 95.4121 21.571 95.1147 21.571C94.6696 21.571 94.3202 21.7926 94.0664 22.2358C93.8126 22.6771 93.6857 23.2955 93.6857 24.0909C93.6857 24.6212 93.7425 25.0739 93.8562 25.4489C93.9717 25.8239 94.1355 26.1098 94.3477 26.3068C94.5617 26.5038 94.8174 26.6023 95.1147 26.6023ZM100.021 27.0795C99.6119 27.0795 99.2624 26.9621 98.9727 26.7273C98.6848 26.4905 98.4632 26.1487 98.3079 25.7017C98.1545 25.2547 98.0778 24.7178 98.0778 24.0909C98.0778 23.4659 98.1545 22.9309 98.3079 22.4858C98.4632 22.0388 98.6857 21.697 98.9755 21.4602C99.2672 21.2216 99.6156 21.1023 100.021 21.1023C100.426 21.1023 100.774 21.2216 101.064 21.4602C101.355 21.697 101.578 22.0388 101.731 22.4858C101.886 22.9309 101.964 23.4659 101.964 24.0909C101.964 24.7178 101.886 25.2547 101.731 25.7017C101.578 26.1487 101.356 26.4905 101.066 26.7273C100.779 26.9621 100.43 27.0795 100.021 27.0795ZM100.021 26.6023C100.47 26.6023 100.82 26.3835 101.072 25.946C101.324 25.5066 101.45 24.8883 101.45 24.0909C101.45 23.5606 101.392 23.108 101.277 22.733C101.163 22.3561 100.999 22.0682 100.785 21.8693C100.573 21.6705 100.318 21.571 100.021 21.571C99.5759 21.571 99.2264 21.7926 98.9727 22.2358C98.7189 22.6771 98.592 23.2955 98.592 24.0909C98.592 24.6212 98.6488 25.0739 98.7624 25.4489C98.878 25.8239 99.0418 26.1098 99.2539 26.3068C99.4679 26.5038 99.7236 26.6023 100.021 26.6023Z" fill="#525252"/>
<line x1="470.5" y1="32.5" x2="470.5" y2="46.5" stroke="#525252" stroke-linecap="round"/>
<path d="M462.166 21.1818V27H461.635V21.7386H461.6L460.237 22.6449V22.0938L461.612 21.1818H462.166ZM465.822 27.0795C465.464 27.0795 465.144 27.0152 464.862 26.8864C464.58 26.7557 464.356 26.5748 464.191 26.3438C464.027 26.1127 463.94 25.8466 463.93 25.5455H464.467C464.476 25.7576 464.542 25.9432 464.663 26.1023C464.784 26.2595 464.945 26.3826 465.146 26.4716C465.347 26.5587 465.57 26.6023 465.816 26.6023C466.085 26.6023 466.322 26.5521 466.527 26.4517C466.733 26.3513 466.894 26.214 467.01 26.0398C467.127 25.8636 467.186 25.6648 467.186 25.4432C467.186 25.2083 467.126 25.0009 467.007 24.821C466.887 24.6411 466.716 24.5009 466.493 24.4006C466.271 24.3002 466.006 24.25 465.697 24.25H465.356V23.7727H465.697C465.949 23.7727 466.172 23.7273 466.365 23.6364C466.56 23.5436 466.713 23.4138 466.825 23.2472C466.937 23.0805 466.993 22.8845 466.993 22.6591C466.993 22.4451 466.944 22.2566 466.848 22.0938C466.751 21.9309 466.615 21.803 466.439 21.7102C466.264 21.6174 466.061 21.571 465.828 21.571C465.602 21.571 465.396 21.6146 465.208 21.7017C465.021 21.7888 464.869 21.9119 464.754 22.071C464.64 22.2301 464.58 22.4186 464.572 22.6364H464.058C464.065 22.3333 464.149 22.0672 464.308 21.8381C464.469 21.607 464.682 21.4271 464.947 21.2983C465.214 21.1676 465.51 21.1023 465.833 21.1023C466.176 21.1023 466.473 21.1723 466.723 21.3125C466.973 21.4527 467.166 21.6392 467.302 21.8722C467.44 22.1032 467.51 22.358 467.51 22.6364C467.51 22.9678 467.42 23.2519 467.24 23.4886C467.06 23.7235 466.817 23.8864 466.512 23.9773V24.0142C466.884 24.0881 467.175 24.2528 467.387 24.5085C467.601 24.7623 467.708 25.0739 467.708 25.4432C467.708 25.7538 467.627 26.0331 467.464 26.2812C467.301 26.5275 467.078 26.7225 466.794 26.8665C466.511 27.0085 466.188 27.0795 465.822 27.0795ZM469.387 26.1278C469.276 26.1278 469.179 26.0881 469.098 26.0085C469.018 25.9271 468.978 25.8305 468.978 25.7188C468.978 25.6051 469.018 25.5085 469.098 25.429C469.179 25.3494 469.276 25.3097 469.387 25.3097C469.501 25.3097 469.598 25.3494 469.677 25.429C469.757 25.5085 469.797 25.6051 469.797 25.7188C469.797 25.7926 469.778 25.8608 469.74 25.9233C469.704 25.9858 469.654 26.036 469.592 26.0739C469.531 26.1098 469.463 26.1278 469.387 26.1278ZM469.387 23.1761C469.276 23.1761 469.179 23.1364 469.098 23.0568C469.018 22.9754 468.978 22.8788 468.978 22.767C468.978 22.6553 469.018 22.5597 469.098 22.4801C469.179 22.3987 469.276 22.358 469.387 22.358C469.501 22.358 469.598 22.3987 469.677 22.4801C469.757 22.5597 469.797 22.6553 469.797 22.767C469.797 22.8409 469.778 22.9091 469.74 22.9716C469.704 23.0341 469.654 23.0843 469.592 23.1222C469.531 23.1581 469.463 23.1761 469.387 23.1761ZM472.919 27.0795C472.51 27.0795 472.161 26.9621 471.871 26.7273C471.583 26.4905 471.362 26.1487 471.206 25.7017C471.053 25.2547 470.976 24.7178 470.976 24.0909C470.976 23.4659 471.053 22.9309 471.206 22.4858C471.362 22.0388 471.584 21.697 471.874 21.4602C472.166 21.2216 472.514 21.1023 472.919 21.1023C473.325 21.1023 473.672 21.2216 473.962 21.4602C474.254 21.697 474.476 22.0388 474.63 22.4858C474.785 22.9309 474.863 23.4659 474.863 24.0909C474.863 24.7178 474.785 25.2547 474.63 25.7017C474.476 26.1487 474.255 26.4905 473.965 26.7273C473.677 26.9621 473.328 27.0795 472.919 27.0795ZM472.919 26.6023C473.368 26.6023 473.719 26.3835 473.971 25.946C474.222 25.5066 474.348 24.8883 474.348 24.0909C474.348 23.5606 474.291 23.108 474.175 22.733C474.061 22.3561 473.898 22.0682 473.684 21.8693C473.471 21.6705 473.217 21.571 472.919 21.571C472.474 21.571 472.125 21.7926 471.871 22.2358C471.617 22.6771 471.49 23.2955 471.49 24.0909C471.49 24.6212 471.547 25.0739 471.661 25.4489C471.776 25.8239 471.94 26.1098 472.152 26.3068C472.366 26.5038 472.622 26.6023 472.919 26.6023ZM477.826 27.0795C477.417 27.0795 477.067 26.9621 476.777 26.7273C476.489 26.4905 476.268 26.1487 476.113 25.7017C475.959 25.2547 475.882 24.7178 475.882 24.0909C475.882 23.4659 475.959 22.9309 476.113 22.4858C476.268 22.0388 476.49 21.697 476.78 21.4602C477.072 21.2216 477.42 21.1023 477.826 21.1023C478.231 21.1023 478.578 21.2216 478.868 21.4602C479.16 21.697 479.382 22.0388 479.536 22.4858C479.691 22.9309 479.769 23.4659 479.769 24.0909C479.769 24.7178 479.691 25.2547 479.536 25.7017C479.382 26.1487 479.161 26.4905 478.871 26.7273C478.583 26.9621 478.235 27.0795 477.826 27.0795ZM477.826 26.6023C478.275 26.6023 478.625 26.3835 478.877 25.946C479.129 25.5066 479.255 24.8883 479.255 24.0909C479.255 23.5606 479.197 23.108 479.081 22.733C478.968 22.3561 478.804 22.0682 478.59 21.8693C478.378 21.6705 478.123 21.571 477.826 21.571C477.381 21.571 477.031 21.7926 476.777 22.2358C476.524 22.6771 476.397 23.2955 476.397 24.0909C476.397 24.6212 476.453 25.0739 476.567 25.4489C476.683 25.8239 476.846 26.1098 477.059 26.3068C477.273 26.5038 477.528 26.6023 477.826 26.6023Z" fill="#525252"/>
<line x1="659.5" y1="32.5" x2="659.5" y2="46.5" stroke="#525252" stroke-linecap="round"/>
<path d="M651.244 21.1818V27H650.713V21.7386H650.679L649.315 22.6449V22.0938L650.69 21.1818H651.244ZM654.843 27.0795C654.603 27.0777 654.368 27.0294 654.139 26.9347C653.91 26.8381 653.703 26.6837 653.52 26.4716C653.336 26.2576 653.19 25.9754 653.082 25.625C652.974 25.2746 652.92 24.8437 652.92 24.3324C652.92 23.8589 652.962 23.4252 653.045 23.0312C653.128 22.6373 653.253 22.2964 653.42 22.0085C653.587 21.7206 653.795 21.4981 654.045 21.3409C654.295 21.1818 654.588 21.1023 654.923 21.1023C655.237 21.1023 655.515 21.1676 655.755 21.2983C655.996 21.4271 656.191 21.607 656.341 21.8381C656.49 22.0691 656.584 22.3352 656.622 22.6364H656.099C656.046 22.3295 655.92 22.0767 655.721 21.8778C655.522 21.679 655.256 21.5795 654.923 21.5795C654.446 21.5795 654.076 21.8011 653.815 22.2443C653.554 22.6856 653.422 23.3125 653.42 24.125H653.457C653.55 23.9527 653.669 23.804 653.815 23.679C653.963 23.5521 654.13 23.4536 654.318 23.3835C654.505 23.3116 654.702 23.2756 654.909 23.2756C655.233 23.2756 655.529 23.358 655.798 23.5227C656.067 23.6856 656.282 23.91 656.443 24.196C656.604 24.4801 656.684 24.8049 656.684 25.1705C656.684 25.517 656.608 25.8362 656.454 26.1278C656.303 26.4195 656.089 26.6515 655.812 26.8239C655.538 26.9962 655.215 27.0814 654.843 27.0795ZM654.843 26.6023C655.097 26.6023 655.324 26.5379 655.522 26.4091C655.723 26.2803 655.881 26.108 655.997 25.892C656.112 25.6742 656.17 25.4337 656.17 25.1705C656.17 24.9072 656.112 24.6686 655.997 24.4545C655.881 24.2405 655.723 24.0701 655.522 23.9432C655.324 23.8163 655.097 23.7528 654.843 23.7528C654.65 23.7528 654.47 23.7926 654.304 23.8722C654.137 23.9498 653.992 24.0568 653.869 24.1932C653.748 24.3277 653.655 24.482 653.591 24.6562C653.528 24.8305 653.504 25.0133 653.52 25.2045C653.54 25.4716 653.609 25.7112 653.727 25.9233C653.846 26.1335 654.002 26.2992 654.193 26.4205C654.386 26.5417 654.603 26.6023 654.843 26.6023ZM658.309 26.1278C658.198 26.1278 658.101 26.0881 658.02 26.0085C657.94 25.9271 657.9 25.8305 657.9 25.7188C657.9 25.6051 657.94 25.5085 658.02 25.429C658.101 25.3494 658.198 25.3097 658.309 25.3097C658.423 25.3097 658.52 25.3494 658.599 25.429C658.679 25.5085 658.718 25.6051 658.718 25.7188C658.718 25.7926 658.699 25.8608 658.662 25.9233C658.626 25.9858 658.576 26.036 658.514 26.0739C658.453 26.1098 658.385 26.1278 658.309 26.1278ZM658.309 23.1761C658.198 23.1761 658.101 23.1364 658.02 23.0568C657.94 22.9754 657.9 22.8788 657.9 22.767C657.9 22.6553 657.94 22.5597 658.02 22.4801C658.101 22.3987 658.198 22.358 658.309 22.358C658.423 22.358 658.52 22.3987 658.599 22.4801C658.679 22.5597 658.718 22.6553 658.718 22.767C658.718 22.8409 658.699 22.9091 658.662 22.9716C658.626 23.0341 658.576 23.0843 658.514 23.1222C658.453 23.1581 658.385 23.1761 658.309 23.1761ZM661.841 27.0795C661.432 27.0795 661.083 26.9621 660.793 26.7273C660.505 26.4905 660.283 26.1487 660.128 25.7017C659.975 25.2547 659.898 24.7178 659.898 24.0909C659.898 23.4659 659.975 22.9309 660.128 22.4858C660.283 22.0388 660.506 21.697 660.796 21.4602C661.087 21.2216 661.436 21.1023 661.841 21.1023C662.247 21.1023 662.594 21.2216 662.884 21.4602C663.176 21.697 663.398 22.0388 663.551 22.4858C663.707 22.9309 663.784 23.4659 663.784 24.0909C663.784 24.7178 663.707 25.2547 663.551 25.7017C663.398 26.1487 663.176 26.4905 662.887 26.7273C662.599 26.9621 662.25 27.0795 661.841 27.0795ZM661.841 26.6023C662.29 26.6023 662.641 26.3835 662.892 25.946C663.144 25.5066 663.27 24.8883 663.27 24.0909C663.27 23.5606 663.212 23.108 663.097 22.733C662.983 22.3561 662.819 22.0682 662.605 21.8693C662.393 21.6705 662.139 21.571 661.841 21.571C661.396 21.571 661.047 21.7926 660.793 22.2358C660.539 22.6771 660.412 23.2955 660.412 24.0909C660.412 24.6212 660.469 25.0739 660.583 25.4489C660.698 25.8239 660.862 26.1098 661.074 26.3068C661.288 26.5038 661.544 26.6023 661.841 26.6023ZM666.748 27.0795C666.338 27.0795 665.989 26.9621 665.699 26.7273C665.411 26.4905 665.19 26.1487 665.034 25.7017C664.881 25.2547 664.804 24.7178 664.804 24.0909C664.804 23.4659 664.881 22.9309 665.034 22.4858C665.19 22.0388 665.412 21.697 665.702 21.4602C665.994 21.2216 666.342 21.1023 666.748 21.1023C667.153 21.1023 667.5 21.2216 667.79 21.4602C668.082 21.697 668.304 22.0388 668.458 22.4858C668.613 22.9309 668.691 23.4659 668.691 24.0909C668.691 24.7178 668.613 25.2547 668.458 25.7017C668.304 26.1487 668.083 26.4905 667.793 26.7273C667.505 26.9621 667.157 27.0795 666.748 27.0795ZM666.748 26.6023C667.196 26.6023 667.547 26.3835 667.799 25.946C668.051 25.5066 668.176 24.8883 668.176 24.0909C668.176 23.5606 668.119 23.108 668.003 22.733C667.89 22.3561 667.726 22.0682 667.512 21.8693C667.3 21.6705 667.045 21.571 666.748 21.571C666.302 21.571 665.953 21.7926 665.699 22.2358C665.445 22.6771 665.319 23.2955 665.319 24.0909C665.319 24.6212 665.375 25.0739 665.489 25.4489C665.605 25.8239 665.768 26.1098 665.98 26.3068C666.194 26.5038 666.45 26.6023 666.748 26.6023Z" fill="#525252"/>
<line x1="344.5" y1="32.5" x2="344.5" y2="46.5" stroke="#525252" stroke-linecap="round"/>
<path d="M336.9 21.1818V27H336.369V21.7386H336.335L334.971 22.6449V22.0938L336.346 21.1818H336.9ZM340.463 21.1818V27H339.931V21.7386H339.897L338.534 22.6449V22.0938L339.909 21.1818H340.463ZM342.653 26.1278C342.541 26.1278 342.445 26.0881 342.363 26.0085C342.284 25.9271 342.244 25.8305 342.244 25.7188C342.244 25.6051 342.284 25.5085 342.363 25.429C342.445 25.3494 342.541 25.3097 342.653 25.3097C342.767 25.3097 342.863 25.3494 342.943 25.429C343.022 25.5085 343.062 25.6051 343.062 25.7188C343.062 25.7926 343.043 25.8608 343.005 25.9233C342.969 25.9858 342.92 26.036 342.858 26.0739C342.797 26.1098 342.729 26.1278 342.653 26.1278ZM342.653 23.1761C342.541 23.1761 342.445 23.1364 342.363 23.0568C342.284 22.9754 342.244 22.8788 342.244 22.767C342.244 22.6553 342.284 22.5597 342.363 22.4801C342.445 22.3987 342.541 22.358 342.653 22.358C342.767 22.358 342.863 22.3987 342.943 22.4801C343.022 22.5597 343.062 22.6553 343.062 22.767C343.062 22.8409 343.043 22.9091 343.005 22.9716C342.969 23.0341 342.92 23.0843 342.858 23.1222C342.797 23.1581 342.729 23.1761 342.653 23.1761ZM346.185 27.0795C345.776 27.0795 345.426 26.9621 345.137 26.7273C344.849 26.4905 344.627 26.1487 344.472 25.7017C344.319 25.2547 344.242 24.7178 344.242 24.0909C344.242 23.4659 344.319 22.9309 344.472 22.4858C344.627 22.0388 344.85 21.697 345.14 21.4602C345.431 21.2216 345.78 21.1023 346.185 21.1023C346.59 21.1023 346.938 21.2216 347.228 21.4602C347.519 21.697 347.742 22.0388 347.895 22.4858C348.051 22.9309 348.128 23.4659 348.128 24.0909C348.128 24.7178 348.051 25.2547 347.895 25.7017C347.742 26.1487 347.52 26.4905 347.23 26.7273C346.943 26.9621 346.594 27.0795 346.185 27.0795ZM346.185 26.6023C346.634 26.6023 346.984 26.3835 347.236 25.946C347.488 25.5066 347.614 24.8883 347.614 24.0909C347.614 23.5606 347.556 23.108 347.441 22.733C347.327 22.3561 347.163 22.0682 346.949 21.8693C346.737 21.6705 346.482 21.571 346.185 21.571C345.74 21.571 345.391 21.7926 345.137 22.2358C344.883 22.6771 344.756 23.2955 344.756 24.0909C344.756 24.6212 344.813 25.0739 344.926 25.4489C345.042 25.8239 345.206 26.1098 345.418 26.3068C345.632 26.5038 345.888 26.6023 346.185 26.6023ZM351.091 27.0795C350.682 27.0795 350.333 26.9621 350.043 26.7273C349.755 26.4905 349.533 26.1487 349.378 25.7017C349.225 25.2547 349.148 24.7178 349.148 24.0909C349.148 23.4659 349.225 22.9309 349.378 22.4858C349.533 22.0388 349.756 21.697 350.046 21.4602C350.337 21.2216 350.686 21.1023 351.091 21.1023C351.497 21.1023 351.844 21.2216 352.134 21.4602C352.426 21.697 352.648 22.0388 352.801 22.4858C352.957 22.9309 353.034 23.4659 353.034 24.0909C353.034 24.7178 352.957 25.2547 352.801 25.7017C352.648 26.1487 352.426 26.4905 352.137 26.7273C351.849 26.9621 351.5 27.0795 351.091 27.0795ZM351.091 26.6023C351.54 26.6023 351.891 26.3835 352.142 25.946C352.394 25.5066 352.52 24.8883 352.52 24.0909C352.52 23.5606 352.462 23.108 352.347 22.733C352.233 22.3561 352.069 22.0682 351.855 21.8693C351.643 21.6705 351.389 21.571 351.091 21.571C350.646 21.571 350.297 21.7926 350.043 22.2358C349.789 22.6771 349.662 23.2955 349.662 24.0909C349.662 24.6212 349.719 25.0739 349.833 25.4489C349.948 25.8239 350.112 26.1098 350.324 26.3068C350.538 26.5038 350.794 26.6023 351.091 26.6023Z" fill="#525252"/>
<line x1="533.5" y1="32.5" x2="533.5" y2="46.5" stroke="#525252" stroke-linecap="round"/>
<path d="M525.178 21.1818V27H524.646V21.7386H524.612L523.249 22.6449V22.0938L524.624 21.1818H525.178ZM526.805 25.75V25.3182L529.399 21.1818H529.717V21.9062H529.482L527.399 25.2358V25.2727H530.8V25.75H526.805ZM529.521 27V25.6136V25.4148V21.1818H530.027V27H529.521ZM532.376 26.1278C532.264 26.1278 532.167 26.0881 532.086 26.0085C532.006 25.9271 531.967 25.8305 531.967 25.7188C531.967 25.6051 532.006 25.5085 532.086 25.429C532.167 25.3494 532.264 25.3097 532.376 25.3097C532.489 25.3097 532.586 25.3494 532.665 25.429C532.745 25.5085 532.785 25.6051 532.785 25.7188C532.785 25.7926 532.766 25.8608 532.728 25.9233C532.692 25.9858 532.643 26.036 532.58 26.0739C532.52 26.1098 532.451 26.1278 532.376 26.1278ZM532.376 23.1761C532.264 23.1761 532.167 23.1364 532.086 23.0568C532.006 22.9754 531.967 22.8788 531.967 22.767C531.967 22.6553 532.006 22.5597 532.086 22.4801C532.167 22.3987 532.264 22.358 532.376 22.358C532.489 22.358 532.586 22.3987 532.665 22.4801C532.745 22.5597 532.785 22.6553 532.785 22.767C532.785 22.8409 532.766 22.9091 532.728 22.9716C532.692 23.0341 532.643 23.0843 532.58 23.1222C532.52 23.1581 532.451 23.1761 532.376 23.1761ZM535.908 27.0795C535.499 27.0795 535.149 26.9621 534.859 26.7273C534.571 26.4905 534.35 26.1487 534.195 25.7017C534.041 25.2547 533.964 24.7178 533.964 24.0909C533.964 23.4659 534.041 22.9309 534.195 22.4858C534.35 22.0388 534.572 21.697 534.862 21.4602C535.154 21.2216 535.502 21.1023 535.908 21.1023C536.313 21.1023 536.661 21.2216 536.95 21.4602C537.242 21.697 537.464 22.0388 537.618 22.4858C537.773 22.9309 537.851 23.4659 537.851 24.0909C537.851 24.7178 537.773 25.2547 537.618 25.7017C537.464 26.1487 537.243 26.4905 536.953 26.7273C536.665 26.9621 536.317 27.0795 535.908 27.0795ZM535.908 26.6023C536.357 26.6023 536.707 26.3835 536.959 25.946C537.211 25.5066 537.337 24.8883 537.337 24.0909C537.337 23.5606 537.279 23.108 537.163 22.733C537.05 22.3561 536.886 22.0682 536.672 21.8693C536.46 21.6705 536.205 21.571 535.908 21.571C535.463 21.571 535.113 21.7926 534.859 22.2358C534.606 22.6771 534.479 23.2955 534.479 24.0909C534.479 24.6212 534.536 25.0739 534.649 25.4489C534.765 25.8239 534.929 26.1098 535.141 26.3068C535.355 26.5038 535.61 26.6023 535.908 26.6023ZM540.814 27.0795C540.405 27.0795 540.055 26.9621 539.766 26.7273C539.478 26.4905 539.256 26.1487 539.101 25.7017C538.947 25.2547 538.871 24.7178 538.871 24.0909C538.871 23.4659 538.947 22.9309 539.101 22.4858C539.256 22.0388 539.479 21.697 539.768 21.4602C540.06 21.2216 540.409 21.1023 540.814 21.1023C541.219 21.1023 541.567 21.2216 541.857 21.4602C542.148 21.697 542.371 22.0388 542.524 22.4858C542.679 22.9309 542.757 23.4659 542.757 24.0909C542.757 24.7178 542.679 25.2547 542.524 25.7017C542.371 26.1487 542.149 26.4905 541.859 26.7273C541.571 26.9621 541.223 27.0795 540.814 27.0795ZM540.814 26.6023C541.263 26.6023 541.613 26.3835 541.865 25.946C542.117 25.5066 542.243 24.8883 542.243 24.0909C542.243 23.5606 542.185 23.108 542.07 22.733C541.956 22.3561 541.792 22.0682 541.578 21.8693C541.366 21.6705 541.111 21.571 540.814 21.571C540.369 21.571 540.019 21.7926 539.766 22.2358C539.512 22.6771 539.385 23.2955 539.385 24.0909C539.385 24.6212 539.442 25.0739 539.555 25.4489C539.671 25.8239 539.835 26.1098 540.047 26.3068C540.261 26.5038 540.517 26.6023 540.814 26.6023Z" fill="#525252"/>
<line x1="722.5" y1="32.5" x2="722.5" y2="46.5" stroke="#525252" stroke-linecap="round"/>
<path d="M714.564 21.1818V27H714.033V21.7386H713.999L712.635 22.6449V22.0938L714.01 21.1818H714.564ZM716.499 27L719.15 21.696V21.6591H716.096V21.1818H719.706V21.6818L717.059 27H716.499ZM720.989 26.1278C720.877 26.1278 720.781 26.0881 720.699 26.0085C720.62 25.9271 720.58 25.8305 720.58 25.7188C720.58 25.6051 720.62 25.5085 720.699 25.429C720.781 25.3494 720.877 25.3097 720.989 25.3097C721.103 25.3097 721.199 25.3494 721.279 25.429C721.358 25.5085 721.398 25.6051 721.398 25.7188C721.398 25.7926 721.379 25.8608 721.341 25.9233C721.305 25.9858 721.256 26.036 721.194 26.0739C721.133 26.1098 721.065 26.1278 720.989 26.1278ZM720.989 23.1761C720.877 23.1761 720.781 23.1364 720.699 23.0568C720.62 22.9754 720.58 22.8788 720.58 22.767C720.58 22.6553 720.62 22.5597 720.699 22.4801C720.781 22.3987 720.877 22.358 720.989 22.358C721.103 22.358 721.199 22.3987 721.279 22.4801C721.358 22.5597 721.398 22.6553 721.398 22.767C721.398 22.8409 721.379 22.9091 721.341 22.9716C721.305 23.0341 721.256 23.0843 721.194 23.1222C721.133 23.1581 721.065 23.1761 720.989 23.1761ZM724.521 27.0795C724.112 27.0795 723.762 26.9621 723.473 26.7273C723.185 26.4905 722.963 26.1487 722.808 25.7017C722.654 25.2547 722.578 24.7178 722.578 24.0909C722.578 23.4659 722.654 22.9309 722.808 22.4858C722.963 22.0388 723.186 21.697 723.475 21.4602C723.767 21.2216 724.116 21.1023 724.521 21.1023C724.926 21.1023 725.274 21.2216 725.564 21.4602C725.855 21.697 726.078 22.0388 726.231 22.4858C726.386 22.9309 726.464 23.4659 726.464 24.0909C726.464 24.7178 726.386 25.2547 726.231 25.7017C726.078 26.1487 725.856 26.4905 725.566 26.7273C725.279 26.9621 724.93 27.0795 724.521 27.0795ZM724.521 26.6023C724.97 26.6023 725.32 26.3835 725.572 25.946C725.824 25.5066 725.95 24.8883 725.95 24.0909C725.95 23.5606 725.892 23.108 725.777 22.733C725.663 22.3561 725.499 22.0682 725.285 21.8693C725.073 21.6705 724.818 21.571 724.521 21.571C724.076 21.571 723.726 21.7926 723.473 22.2358C723.219 22.6771 723.092 23.2955 723.092 24.0909C723.092 24.6212 723.149 25.0739 723.262 25.4489C723.378 25.8239 723.542 26.1098 723.754 26.3068C723.968 26.5038 724.224 26.6023 724.521 26.6023ZM729.427 27.0795C729.018 27.0795 728.669 26.9621 728.379 26.7273C728.091 26.4905 727.869 26.1487 727.714 25.7017C727.561 25.2547 727.484 24.7178 727.484 24.0909C727.484 23.4659 727.561 22.9309 727.714 22.4858C727.869 22.0388 728.092 21.697 728.382 21.4602C728.673 21.2216 729.022 21.1023 729.427 21.1023C729.833 21.1023 730.18 21.2216 730.47 21.4602C730.761 21.697 730.984 22.0388 731.137 22.4858C731.293 22.9309 731.37 23.4659 731.37 24.0909C731.37 24.7178 731.293 25.2547 731.137 25.7017C730.984 26.1487 730.762 26.4905 730.473 26.7273C730.185 26.9621 729.836 27.0795 729.427 27.0795ZM729.427 26.6023C729.876 26.6023 730.226 26.3835 730.478 25.946C730.73 25.5066 730.856 24.8883 730.856 24.0909C730.856 23.5606 730.798 23.108 730.683 22.733C730.569 22.3561 730.405 22.0682 730.191 21.8693C729.979 21.6705 729.725 21.571 729.427 21.571C728.982 21.571 728.633 21.7926 728.379 22.2358C728.125 22.6771 727.998 23.2955 727.998 24.0909C727.998 24.6212 728.055 25.0739 728.169 25.4489C728.284 25.8239 728.448 26.1098 728.66 26.3068C728.874 26.5038 729.13 26.6023 729.427 26.6023Z" fill="#525252"/>
<line x1="155.5" y1="32.5" x2="155.5" y2="46.5" stroke="#525252" stroke-linecap="round"/>
<path d="M146.572 27.0795C146.163 27.0795 145.813 26.9621 145.523 26.7273C145.236 26.4905 145.014 26.1487 144.859 25.7017C144.705 25.2547 144.629 24.7178 144.629 24.0909C144.629 23.4659 144.705 22.9309 144.859 22.4858C145.014 22.0388 145.237 21.697 145.526 21.4602C145.818 21.2216 146.166 21.1023 146.572 21.1023C146.977 21.1023 147.325 21.2216 147.614 21.4602C147.906 21.697 148.129 22.0388 148.282 22.4858C148.437 22.9309 148.515 23.4659 148.515 24.0909C148.515 24.7178 148.437 25.2547 148.282 25.7017C148.129 26.1487 147.907 26.4905 147.617 26.7273C147.329 26.9621 146.981 27.0795 146.572 27.0795ZM146.572 26.6023C147.021 26.6023 147.371 26.3835 147.623 25.946C147.875 25.5066 148.001 24.8883 148.001 24.0909C148.001 23.5606 147.943 23.108 147.827 22.733C147.714 22.3561 147.55 22.0682 147.336 21.8693C147.124 21.6705 146.869 21.571 146.572 21.571C146.127 21.571 145.777 21.7926 145.523 22.2358C145.27 22.6771 145.143 23.2955 145.143 24.0909C145.143 24.6212 145.2 25.0739 145.313 25.4489C145.429 25.8239 145.593 26.1098 145.805 26.3068C146.019 26.5038 146.274 26.6023 146.572 26.6023ZM151.469 27.0795C151.098 27.0795 150.768 27.0095 150.478 26.8693C150.188 26.7292 149.961 26.5379 149.796 26.2955C149.631 26.0511 149.549 25.7756 149.549 25.4688C149.549 25.2282 149.599 25.0038 149.7 24.7955C149.8 24.5852 149.938 24.4091 150.114 24.267C150.29 24.1231 150.488 24.0294 150.708 23.9858V23.9545C150.422 23.8712 150.192 23.7074 150.018 23.4631C149.844 23.2169 149.757 22.9375 149.759 22.625C149.757 22.3352 149.831 22.0758 149.981 21.8466C150.13 21.6174 150.334 21.4366 150.592 21.304C150.851 21.1695 151.144 21.1023 151.469 21.1023C151.793 21.1023 152.084 21.1695 152.342 21.304C152.599 21.4366 152.803 21.6174 152.952 21.8466C153.104 22.0758 153.181 22.3352 153.183 22.625C153.181 22.9356 153.093 23.215 152.918 23.4631C152.744 23.7093 152.515 23.8731 152.231 23.9545V23.9858C152.451 24.0275 152.647 24.1203 152.822 24.2642C152.996 24.4081 153.134 24.5852 153.237 24.7955C153.339 25.0038 153.39 25.2282 153.39 25.4688C153.39 25.7756 153.307 26.0511 153.14 26.2955C152.975 26.5379 152.748 26.7292 152.458 26.8693C152.17 27.0095 151.841 27.0795 151.469 27.0795ZM151.469 26.6023C151.746 26.6023 151.988 26.553 152.197 26.4545C152.407 26.3542 152.571 26.2169 152.688 26.0426C152.808 25.8684 152.867 25.6686 152.867 25.4432C152.867 25.2102 152.806 25.0028 152.683 24.821C152.559 24.6373 152.393 24.4924 152.183 24.3864C151.972 24.2784 151.735 24.2244 151.469 24.2244C151.204 24.2244 150.966 24.2784 150.754 24.3864C150.543 24.4924 150.377 24.6373 150.254 24.821C150.132 25.0028 150.072 25.2102 150.072 25.4432C150.072 25.6686 150.129 25.8684 150.245 26.0426C150.362 26.2169 150.526 26.3542 150.737 26.4545C150.949 26.553 151.193 26.6023 151.469 26.6023ZM151.469 23.7699C151.697 23.7699 151.9 23.7216 152.08 23.625C152.26 23.5284 152.402 23.3968 152.506 23.2301C152.612 23.0616 152.666 22.8703 152.668 22.6562C152.666 22.4441 152.613 22.2566 152.509 22.0938C152.405 21.929 152.263 21.8011 152.083 21.7102C151.905 21.6174 151.701 21.571 151.469 21.571C151.238 21.571 151.032 21.6174 150.85 21.7102C150.67 21.8011 150.528 21.929 150.424 22.0938C150.322 22.2566 150.272 22.4441 150.273 22.6562C150.272 22.8703 150.323 23.0616 150.427 23.2301C150.533 23.3968 150.676 23.5284 150.856 23.625C151.038 23.7216 151.242 23.7699 151.469 23.7699ZM154.993 26.1278C154.881 26.1278 154.785 26.0881 154.703 26.0085C154.624 25.9271 154.584 25.8305 154.584 25.7188C154.584 25.6051 154.624 25.5085 154.703 25.429C154.785 25.3494 154.881 25.3097 154.993 25.3097C155.107 25.3097 155.203 25.3494 155.283 25.429C155.362 25.5085 155.402 25.6051 155.402 25.7188C155.402 25.7926 155.383 25.8608 155.345 25.9233C155.309 25.9858 155.26 26.036 155.197 26.0739C155.137 26.1098 155.069 26.1278 154.993 26.1278ZM154.993 23.1761C154.881 23.1761 154.785 23.1364 154.703 23.0568C154.624 22.9754 154.584 22.8788 154.584 22.767C154.584 22.6553 154.624 22.5597 154.703 22.4801C154.785 22.3987 154.881 22.358 154.993 22.358C155.107 22.358 155.203 22.3987 155.283 22.4801C155.362 22.5597 155.402 22.6553 155.402 22.767C155.402 22.8409 155.383 22.9091 155.345 22.9716C155.309 23.0341 155.26 23.0843 155.197 23.1222C155.137 23.1581 155.069 23.1761 154.993 23.1761ZM158.525 27.0795C158.116 27.0795 157.766 26.9621 157.477 26.7273C157.189 26.4905 156.967 26.1487 156.812 25.7017C156.658 25.2547 156.582 24.7178 156.582 24.0909C156.582 23.4659 156.658 22.9309 156.812 22.4858C156.967 22.0388 157.19 21.697 157.479 21.4602C157.771 21.2216 158.12 21.1023 158.525 21.1023C158.93 21.1023 159.278 21.2216 159.567 21.4602C159.859 21.697 160.082 22.0388 160.235 22.4858C160.39 22.9309 160.468 23.4659 160.468 24.0909C160.468 24.7178 160.39 25.2547 160.235 25.7017C160.082 26.1487 159.86 26.4905 159.57 26.7273C159.282 26.9621 158.934 27.0795 158.525 27.0795ZM158.525 26.6023C158.974 26.6023 159.324 26.3835 159.576 25.946C159.828 25.5066 159.954 24.8883 159.954 24.0909C159.954 23.5606 159.896 23.108 159.781 22.733C159.667 22.3561 159.503 22.0682 159.289 21.8693C159.077 21.6705 158.822 21.571 158.525 21.571C158.08 21.571 157.73 21.7926 157.477 22.2358C157.223 22.6771 157.096 23.2955 157.096 24.0909C157.096 24.6212 157.153 25.0739 157.266 25.4489C157.382 25.8239 157.546 26.1098 157.758 26.3068C157.972 26.5038 158.228 26.6023 158.525 26.6023ZM163.431 27.0795C163.022 27.0795 162.673 26.9621 162.383 26.7273C162.095 26.4905 161.873 26.1487 161.718 25.7017C161.565 25.2547 161.488 24.7178 161.488 24.0909C161.488 23.4659 161.565 22.9309 161.718 22.4858C161.873 22.0388 162.096 21.697 162.386 21.4602C162.677 21.2216 163.026 21.1023 163.431 21.1023C163.836 21.1023 164.184 21.2216 164.474 21.4602C164.765 21.697 164.988 22.0388 165.141 22.4858C165.297 22.9309 165.374 23.4659 165.374 24.0909C165.374 24.7178 165.297 25.2547 165.141 25.7017C164.988 26.1487 164.766 26.4905 164.477 26.7273C164.189 26.9621 163.84 27.0795 163.431 27.0795ZM163.431 26.6023C163.88 26.6023 164.23 26.3835 164.482 25.946C164.734 25.5066 164.86 24.8883 164.86 24.0909C164.86 23.5606 164.802 23.108 164.687 22.733C164.573 22.3561 164.409 22.0682 164.195 21.8693C163.983 21.6705 163.728 21.571 163.431 21.571C162.986 21.571 162.637 21.7926 162.383 22.2358C162.129 22.6771 162.002 23.2955 162.002 24.0909C162.002 24.6212 162.059 25.0739 162.173 25.4489C162.288 25.8239 162.452 26.1098 162.664 26.3068C162.878 26.5038 163.134 26.6023 163.431 26.6023Z" fill="#525252"/>
<line x1="282.5" y1="32.5" x2="282.5" y2="46.5" stroke="#525252" stroke-linecap="round"/>
<path d="M274.228 21.1818V27H273.697V21.7386H273.663L272.299 22.6449V22.0938L273.674 21.1818H274.228ZM277.802 27.0795C277.393 27.0795 277.044 26.9621 276.754 26.7273C276.466 26.4905 276.244 26.1487 276.089 25.7017C275.936 25.2547 275.859 24.7178 275.859 24.0909C275.859 23.4659 275.936 22.9309 276.089 22.4858C276.244 22.0388 276.467 21.697 276.757 21.4602C277.048 21.2216 277.397 21.1023 277.802 21.1023C278.208 21.1023 278.555 21.2216 278.845 21.4602C279.136 21.697 279.359 22.0388 279.512 22.4858C279.668 22.9309 279.745 23.4659 279.745 24.0909C279.745 24.7178 279.668 25.2547 279.512 25.7017C279.359 26.1487 279.137 26.4905 278.848 26.7273C278.56 26.9621 278.211 27.0795 277.802 27.0795ZM277.802 26.6023C278.251 26.6023 278.601 26.3835 278.853 25.946C279.105 25.5066 279.231 24.8883 279.231 24.0909C279.231 23.5606 279.173 23.108 279.058 22.733C278.944 22.3561 278.78 22.0682 278.566 21.8693C278.354 21.6705 278.1 21.571 277.802 21.571C277.357 21.571 277.008 21.7926 276.754 22.2358C276.5 22.6771 276.373 23.2955 276.373 24.0909C276.373 24.6212 276.43 25.0739 276.544 25.4489C276.659 25.8239 276.823 26.1098 277.035 26.3068C277.249 26.5038 277.505 26.6023 277.802 26.6023ZM281.325 26.1278C281.213 26.1278 281.117 26.0881 281.035 26.0085C280.956 25.9271 280.916 25.8305 280.916 25.7188C280.916 25.6051 280.956 25.5085 281.035 25.429C281.117 25.3494 281.213 25.3097 281.325 25.3097C281.439 25.3097 281.535 25.3494 281.615 25.429C281.694 25.5085 281.734 25.6051 281.734 25.7188C281.734 25.7926 281.715 25.8608 281.677 25.9233C281.641 25.9858 281.592 26.036 281.529 26.0739C281.469 26.1098 281.401 26.1278 281.325 26.1278ZM281.325 23.1761C281.213 23.1761 281.117 23.1364 281.035 23.0568C280.956 22.9754 280.916 22.8788 280.916 22.767C280.916 22.6553 280.956 22.5597 281.035 22.4801C281.117 22.3987 281.213 22.358 281.325 22.358C281.439 22.358 281.535 22.3987 281.615 22.4801C281.694 22.5597 281.734 22.6553 281.734 22.767C281.734 22.8409 281.715 22.9091 281.677 22.9716C281.641 23.0341 281.592 23.0843 281.529 23.1222C281.469 23.1581 281.401 23.1761 281.325 23.1761ZM284.857 27.0795C284.448 27.0795 284.098 26.9621 283.809 26.7273C283.521 26.4905 283.299 26.1487 283.144 25.7017C282.99 25.2547 282.914 24.7178 282.914 24.0909C282.914 23.4659 282.99 22.9309 283.144 22.4858C283.299 22.0388 283.522 21.697 283.811 21.4602C284.103 21.2216 284.452 21.1023 284.857 21.1023C285.262 21.1023 285.61 21.2216 285.9 21.4602C286.191 21.697 286.414 22.0388 286.567 22.4858C286.722 22.9309 286.8 23.4659 286.8 24.0909C286.8 24.7178 286.722 25.2547 286.567 25.7017C286.414 26.1487 286.192 26.4905 285.902 26.7273C285.614 26.9621 285.266 27.0795 284.857 27.0795ZM284.857 26.6023C285.306 26.6023 285.656 26.3835 285.908 25.946C286.16 25.5066 286.286 24.8883 286.286 24.0909C286.286 23.5606 286.228 23.108 286.113 22.733C285.999 22.3561 285.835 22.0682 285.621 21.8693C285.409 21.6705 285.154 21.571 284.857 21.571C284.412 21.571 284.062 21.7926 283.809 22.2358C283.555 22.6771 283.428 23.2955 283.428 24.0909C283.428 24.6212 283.485 25.0739 283.598 25.4489C283.714 25.8239 283.878 26.1098 284.09 26.3068C284.304 26.5038 284.56 26.6023 284.857 26.6023ZM289.763 27.0795C289.354 27.0795 289.005 26.9621 288.715 26.7273C288.427 26.4905 288.205 26.1487 288.05 25.7017C287.897 25.2547 287.82 24.7178 287.82 24.0909C287.82 23.4659 287.897 22.9309 288.05 22.4858C288.205 22.0388 288.428 21.697 288.718 21.4602C289.009 21.2216 289.358 21.1023 289.763 21.1023C290.168 21.1023 290.516 21.2216 290.806 21.4602C291.097 21.697 291.32 22.0388 291.473 22.4858C291.629 22.9309 291.706 23.4659 291.706 24.0909C291.706 24.7178 291.629 25.2547 291.473 25.7017C291.32 26.1487 291.098 26.4905 290.809 26.7273C290.521 26.9621 290.172 27.0795 289.763 27.0795ZM289.763 26.6023C290.212 26.6023 290.562 26.3835 290.814 25.946C291.066 25.5066 291.192 24.8883 291.192 24.0909C291.192 23.5606 291.134 23.108 291.019 22.733C290.905 22.3561 290.741 22.0682 290.527 21.8693C290.315 21.6705 290.06 21.571 289.763 21.571C289.318 21.571 288.969 21.7926 288.715 22.2358C288.461 22.6771 288.334 23.2955 288.334 24.0909C288.334 24.6212 288.391 25.0739 288.505 25.4489C288.62 25.8239 288.784 26.1098 288.996 26.3068C289.21 26.5038 289.466 26.6023 289.763 26.6023Z" fill="#525252"/>
<line x1="219" y1="24" x2="219" y2="52" stroke="#525252" stroke-width="2" stroke-linecap="round"/>
<path d="M205.104 12.1193C204.461 12.1193 203.915 11.9446 203.463 11.5952C203.011 11.2429 202.666 10.733 202.427 10.0653C202.189 9.39489 202.069 8.58523 202.069 7.63636C202.069 6.69318 202.189 5.88778 202.427 5.22017C202.669 4.54972 203.015 4.03835 203.467 3.68608C203.922 3.33097 204.467 3.15341 205.104 3.15341C205.74 3.15341 206.284 3.33097 206.736 3.68608C207.19 4.03835 207.537 4.54972 207.775 5.22017C208.017 5.88778 208.138 6.69318 208.138 7.63636C208.138 8.58523 208.018 9.39489 207.78 10.0653C207.541 10.733 207.196 11.2429 206.744 11.5952C206.292 11.9446 205.746 12.1193 205.104 12.1193ZM205.104 11.1818C205.74 11.1818 206.234 10.875 206.586 10.2614C206.939 9.64773 207.115 8.77273 207.115 7.63636C207.115 6.88068 207.034 6.23722 206.872 5.70597C206.713 5.17472 206.483 4.76989 206.182 4.49148C205.883 4.21307 205.524 4.07386 205.104 4.07386C204.473 4.07386 203.98 4.38494 203.625 5.0071C203.27 5.62642 203.092 6.50284 203.092 7.63636C203.092 8.39205 203.172 9.03409 203.331 9.5625C203.49 10.0909 203.719 10.4929 204.017 10.7685C204.318 11.044 204.68 11.1818 205.104 11.1818ZM212.535 3.15341C212.893 3.15625 213.251 3.22443 213.609 3.35795C213.967 3.49148 214.294 3.71307 214.589 4.02273C214.885 4.32955 215.122 4.74858 215.301 5.27983C215.48 5.81108 215.569 6.47727 215.569 7.27841C215.569 8.05398 215.496 8.7429 215.348 9.34517C215.203 9.9446 214.993 10.4503 214.717 10.8622C214.444 11.2741 214.112 11.5866 213.72 11.7997C213.331 12.0128 212.89 12.1193 212.399 12.1193C211.91 12.1193 211.474 12.0227 211.091 11.8295C210.71 11.6335 210.398 11.3622 210.153 11.0156C209.912 10.6662 209.757 10.2614 209.689 9.80114H210.729C210.822 10.2017 211.008 10.5327 211.287 10.794C211.568 11.0526 211.939 11.1818 212.399 11.1818C213.072 11.1818 213.604 10.8878 213.993 10.2997C214.385 9.71165 214.581 8.88068 214.581 7.80682H214.513C214.354 8.04545 214.165 8.25142 213.946 8.42472C213.727 8.59801 213.484 8.73153 213.217 8.82528C212.95 8.91903 212.666 8.96591 212.365 8.96591C211.865 8.96591 211.406 8.84233 210.988 8.59517C210.574 8.34517 210.241 8.00284 209.991 7.56818C209.744 7.13068 209.621 6.63068 209.621 6.06818C209.621 5.53409 209.74 5.04545 209.979 4.60227C210.22 4.15625 210.558 3.80114 210.993 3.53693C211.43 3.27273 211.944 3.14489 212.535 3.15341ZM212.535 4.09091C212.177 4.09091 211.855 4.1804 211.568 4.35938C211.284 4.53551 211.058 4.77415 210.89 5.07528C210.726 5.37358 210.643 5.70455 210.643 6.06818C210.643 6.43182 210.723 6.76278 210.882 7.06108C211.044 7.35653 211.264 7.59233 211.542 7.76847C211.824 7.94176 212.143 8.02841 212.501 8.02841C212.771 8.02841 213.023 7.97585 213.256 7.87074C213.488 7.76278 213.692 7.61648 213.865 7.43182C214.041 7.24432 214.179 7.03267 214.278 6.79688C214.378 6.55824 214.427 6.30966 214.427 6.05114C214.427 5.71023 214.345 5.39062 214.18 5.09233C214.018 4.79403 213.794 4.55256 213.507 4.3679C213.223 4.18324 212.899 4.09091 212.535 4.09091ZM217.995 10.8835C217.785 10.8835 217.605 10.8082 217.454 10.6577C217.303 10.5071 217.228 10.3267 217.228 10.1165C217.228 9.90625 217.303 9.72585 217.454 9.57528C217.605 9.42472 217.785 9.34943 217.995 9.34943C218.205 9.34943 218.386 9.42472 218.536 9.57528C218.687 9.72585 218.762 9.90625 218.762 10.1165C218.762 10.2557 218.727 10.3835 218.656 10.5C218.588 10.6165 218.495 10.7102 218.379 10.7812C218.265 10.8494 218.137 10.8835 217.995 10.8835ZM217.995 6.46875C217.785 6.46875 217.605 6.39347 217.454 6.2429C217.303 6.09233 217.228 5.91193 217.228 5.7017C217.228 5.49148 217.303 5.31108 217.454 5.16051C217.605 5.00994 217.785 4.93466 217.995 4.93466C218.205 4.93466 218.386 5.00994 218.536 5.16051C218.687 5.31108 218.762 5.49148 218.762 5.7017C218.762 5.84091 218.727 5.96875 218.656 6.08523C218.588 6.2017 218.495 6.29545 218.379 6.36648C218.265 6.43466 218.137 6.46875 217.995 6.46875ZM223.396 12.1193C222.754 12.1193 222.208 11.9446 221.756 11.5952C221.304 11.2429 220.959 10.733 220.72 10.0653C220.482 9.39489 220.362 8.58523 220.362 7.63636C220.362 6.69318 220.482 5.88778 220.72 5.22017C220.962 4.54972 221.308 4.03835 221.76 3.68608C222.215 3.33097 222.76 3.15341 223.396 3.15341C224.033 3.15341 224.577 3.33097 225.029 3.68608C225.483 4.03835 225.83 4.54972 226.068 5.22017C226.31 5.88778 226.431 6.69318 226.431 7.63636C226.431 8.58523 226.311 9.39489 226.073 10.0653C225.834 10.733 225.489 11.2429 225.037 11.5952C224.585 11.9446 224.039 12.1193 223.396 12.1193ZM223.396 11.1818C224.033 11.1818 224.527 10.875 224.879 10.2614C225.232 9.64773 225.408 8.77273 225.408 7.63636C225.408 6.88068 225.327 6.23722 225.165 5.70597C225.006 5.17472 224.776 4.76989 224.475 4.49148C224.176 4.21307 223.817 4.07386 223.396 4.07386C222.766 4.07386 222.273 4.38494 221.918 5.0071C221.563 5.62642 221.385 6.50284 221.385 7.63636C221.385 8.39205 221.465 9.03409 221.624 9.5625C221.783 10.0909 222.012 10.4929 222.31 10.7685C222.611 11.044 222.973 11.1818 223.396 11.1818ZM230.896 12.1193C230.254 12.1193 229.708 11.9446 229.256 11.5952C228.804 11.2429 228.459 10.733 228.22 10.0653C227.982 9.39489 227.862 8.58523 227.862 7.63636C227.862 6.69318 227.982 5.88778 228.22 5.22017C228.462 4.54972 228.808 4.03835 229.26 3.68608C229.715 3.33097 230.26 3.15341 230.896 3.15341C231.533 3.15341 232.077 3.33097 232.529 3.68608C232.983 4.03835 233.33 4.54972 233.568 5.22017C233.81 5.88778 233.931 6.69318 233.931 7.63636C233.931 8.58523 233.811 9.39489 233.573 10.0653C233.334 10.733 232.989 11.2429 232.537 11.5952C232.085 11.9446 231.539 12.1193 230.896 12.1193ZM230.896 11.1818C231.533 11.1818 232.027 10.875 232.379 10.2614C232.732 9.64773 232.908 8.77273 232.908 7.63636C232.908 6.88068 232.827 6.23722 232.665 5.70597C232.506 5.17472 232.276 4.76989 231.975 4.49148C231.676 4.21307 231.317 4.07386 230.896 4.07386C230.266 4.07386 229.773 4.38494 229.418 5.0071C229.063 5.62642 228.885 6.50284 228.885 7.63636C228.885 8.39205 228.965 9.03409 229.124 9.5625C229.283 10.0909 229.512 10.4929 229.81 10.7685C230.111 11.044 230.473 11.1818 230.896 11.1818Z" fill="#525252"/>
<line x1="408" y1="24" x2="408" y2="52" stroke="#525252" stroke-width="2" stroke-linecap="round"/>
<path d="M395.397 3.27273V12H394.341V4.38068H394.289L392.159 5.79545V4.72159L394.341 3.27273H395.397ZM397.907 12V11.233L400.788 8.07955C401.126 7.71023 401.404 7.3892 401.623 7.11648C401.842 6.84091 402.004 6.58239 402.109 6.34091C402.217 6.09659 402.271 5.84091 402.271 5.57386C402.271 5.26705 402.197 5.00142 402.049 4.77699C401.904 4.55256 401.706 4.37926 401.453 4.2571C401.2 4.13494 400.916 4.07386 400.6 4.07386C400.265 4.07386 399.973 4.14347 399.723 4.28267C399.475 4.41903 399.284 4.6108 399.147 4.85795C399.014 5.10511 398.947 5.39489 398.947 5.72727H397.941C397.941 5.21591 398.059 4.76705 398.295 4.38068C398.531 3.99432 398.852 3.69318 399.258 3.47727C399.667 3.26136 400.126 3.15341 400.635 3.15341C401.146 3.15341 401.599 3.26136 401.994 3.47727C402.389 3.69318 402.699 3.98437 402.923 4.35085C403.147 4.71733 403.26 5.125 403.26 5.57386C403.26 5.89489 403.201 6.20881 403.085 6.51562C402.971 6.8196 402.772 7.15909 402.488 7.53409C402.207 7.90625 401.816 8.3608 401.316 8.89773L399.356 10.9943V11.0625H403.413V12H397.907ZM405.923 10.8835C405.713 10.8835 405.532 10.8082 405.382 10.6577C405.231 10.5071 405.156 10.3267 405.156 10.1165C405.156 9.90625 405.231 9.72585 405.382 9.57528C405.532 9.42472 405.713 9.34943 405.923 9.34943C406.133 9.34943 406.314 9.42472 406.464 9.57528C406.615 9.72585 406.69 9.90625 406.69 10.1165C406.69 10.2557 406.654 10.3835 406.583 10.5C406.515 10.6165 406.423 10.7102 406.306 10.7812C406.193 10.8494 406.065 10.8835 405.923 10.8835ZM405.923 6.46875C405.713 6.46875 405.532 6.39347 405.382 6.2429C405.231 6.09233 405.156 5.91193 405.156 5.7017C405.156 5.49148 405.231 5.31108 405.382 5.16051C405.532 5.00994 405.713 4.93466 405.923 4.93466C406.133 4.93466 406.314 5.00994 406.464 5.16051C406.615 5.31108 406.69 5.49148 406.69 5.7017C406.69 5.84091 406.654 5.96875 406.583 6.08523C406.515 6.2017 406.423 6.29545 406.306 6.36648C406.193 6.43466 406.065 6.46875 405.923 6.46875ZM411.324 12.1193C410.682 12.1193 410.135 11.9446 409.684 11.5952C409.232 11.2429 408.887 10.733 408.648 10.0653C408.409 9.39489 408.29 8.58523 408.29 7.63636C408.29 6.69318 408.409 5.88778 408.648 5.22017C408.89 4.54972 409.236 4.03835 409.688 3.68608C410.142 3.33097 410.688 3.15341 411.324 3.15341C411.961 3.15341 412.505 3.33097 412.956 3.68608C413.411 4.03835 413.757 4.54972 413.996 5.22017C414.238 5.88778 414.358 6.69318 414.358 7.63636C414.358 8.58523 414.239 9.39489 414 10.0653C413.762 10.733 413.417 11.2429 412.965 11.5952C412.513 11.9446 411.966 12.1193 411.324 12.1193ZM411.324 11.1818C411.961 11.1818 412.455 10.875 412.807 10.2614C413.159 9.64773 413.336 8.77273 413.336 7.63636C413.336 6.88068 413.255 6.23722 413.093 5.70597C412.934 5.17472 412.703 4.76989 412.402 4.49148C412.104 4.21307 411.745 4.07386 411.324 4.07386C410.694 4.07386 410.201 4.38494 409.846 5.0071C409.49 5.62642 409.313 6.50284 409.313 7.63636C409.313 8.39205 409.392 9.03409 409.551 9.5625C409.711 10.0909 409.939 10.4929 410.238 10.7685C410.539 11.044 410.901 11.1818 411.324 11.1818ZM418.824 12.1193C418.182 12.1193 417.635 11.9446 417.184 11.5952C416.732 11.2429 416.387 10.733 416.148 10.0653C415.909 9.39489 415.79 8.58523 415.79 7.63636C415.79 6.69318 415.909 5.88778 416.148 5.22017C416.39 4.54972 416.736 4.03835 417.188 3.68608C417.642 3.33097 418.188 3.15341 418.824 3.15341C419.461 3.15341 420.005 3.33097 420.456 3.68608C420.911 4.03835 421.257 4.54972 421.496 5.22017C421.738 5.88778 421.858 6.69318 421.858 7.63636C421.858 8.58523 421.739 9.39489 421.5 10.0653C421.262 10.733 420.917 11.2429 420.465 11.5952C420.013 11.9446 419.466 12.1193 418.824 12.1193ZM418.824 11.1818C419.461 11.1818 419.955 10.875 420.307 10.2614C420.659 9.64773 420.836 8.77273 420.836 7.63636C420.836 6.88068 420.755 6.23722 420.593 5.70597C420.434 5.17472 420.203 4.76989 419.902 4.49148C419.604 4.21307 419.245 4.07386 418.824 4.07386C418.194 4.07386 417.701 4.38494 417.346 5.0071C416.99 5.62642 416.813 6.50284 416.813 7.63636C416.813 8.39205 416.892 9.03409 417.051 9.5625C417.211 10.0909 417.439 10.4929 417.738 10.7685C418.039 11.044 418.401 11.1818 418.824 11.1818Z" fill="#525252"/>
<line x1="597" y1="24" x2="597" y2="52" stroke="#525252" stroke-width="2" stroke-linecap="round"/>
<path d="M584.38 3.27273V12H583.323V4.38068H583.272L581.141 5.79545V4.72159L583.323 3.27273H584.38ZM589.617 12.1193C589.117 12.1193 588.667 12.0199 588.266 11.821C587.866 11.6222 587.545 11.3494 587.303 11.0028C587.062 10.6562 586.93 10.2614 586.907 9.81818H587.93C587.969 10.2131 588.148 10.5398 588.466 10.7983C588.787 11.054 589.171 11.1818 589.617 11.1818C589.975 11.1818 590.293 11.098 590.572 10.9304C590.853 10.7628 591.073 10.5327 591.232 10.2401C591.394 9.9446 591.475 9.6108 591.475 9.23864C591.475 8.85795 591.391 8.51847 591.224 8.22017C591.059 7.91903 590.831 7.68182 590.542 7.50852C590.252 7.33523 589.921 7.24716 589.549 7.24432C589.282 7.24148 589.008 7.28267 588.726 7.3679C588.445 7.45028 588.214 7.55682 588.032 7.6875L587.043 7.56818L587.572 3.27273H592.106V4.21023H588.458L588.151 6.78409H588.202C588.381 6.64205 588.606 6.52415 588.876 6.4304C589.145 6.33665 589.427 6.28977 589.719 6.28977C590.253 6.28977 590.729 6.41761 591.147 6.6733C591.567 6.92614 591.897 7.27273 592.135 7.71307C592.377 8.15341 592.498 8.65625 592.498 9.22159C592.498 9.77841 592.373 10.2756 592.123 10.7131C591.876 11.1477 591.535 11.4915 591.1 11.7443C590.665 11.9943 590.171 12.1193 589.617 12.1193ZM594.941 10.8835C594.73 10.8835 594.55 10.8082 594.399 10.6577C594.249 10.5071 594.173 10.3267 594.173 10.1165C594.173 9.90625 594.249 9.72585 594.399 9.57528C594.55 9.42472 594.73 9.34943 594.941 9.34943C595.151 9.34943 595.331 9.42472 595.482 9.57528C595.632 9.72585 595.708 9.90625 595.708 10.1165C595.708 10.2557 595.672 10.3835 595.601 10.5C595.533 10.6165 595.441 10.7102 595.324 10.7812C595.21 10.8494 595.083 10.8835 594.941 10.8835ZM594.941 6.46875C594.73 6.46875 594.55 6.39347 594.399 6.2429C594.249 6.09233 594.173 5.91193 594.173 5.7017C594.173 5.49148 594.249 5.31108 594.399 5.16051C594.55 5.00994 594.73 4.93466 594.941 4.93466C595.151 4.93466 595.331 5.00994 595.482 5.16051C595.632 5.31108 595.708 5.49148 595.708 5.7017C595.708 5.84091 595.672 5.96875 595.601 6.08523C595.533 6.2017 595.441 6.29545 595.324 6.36648C595.21 6.43466 595.083 6.46875 594.941 6.46875ZM600.342 12.1193C599.7 12.1193 599.153 11.9446 598.701 11.5952C598.249 11.2429 597.904 10.733 597.666 10.0653C597.427 9.39489 597.308 8.58523 597.308 7.63636C597.308 6.69318 597.427 5.88778 597.666 5.22017C597.907 4.54972 598.254 4.03835 598.705 3.68608C599.16 3.33097 599.705 3.15341 600.342 3.15341C600.978 3.15341 601.522 3.33097 601.974 3.68608C602.428 4.03835 602.775 4.54972 603.014 5.22017C603.255 5.88778 603.376 6.69318 603.376 7.63636C603.376 8.58523 603.257 9.39489 603.018 10.0653C602.779 10.733 602.434 11.2429 601.982 11.5952C601.531 11.9446 600.984 12.1193 600.342 12.1193ZM600.342 11.1818C600.978 11.1818 601.472 10.875 601.825 10.2614C602.177 9.64773 602.353 8.77273 602.353 7.63636C602.353 6.88068 602.272 6.23722 602.11 5.70597C601.951 5.17472 601.721 4.76989 601.42 4.49148C601.122 4.21307 600.762 4.07386 600.342 4.07386C599.711 4.07386 599.218 4.38494 598.863 5.0071C598.508 5.62642 598.33 6.50284 598.33 7.63636C598.33 8.39205 598.41 9.03409 598.569 9.5625C598.728 10.0909 598.957 10.4929 599.255 10.7685C599.556 11.044 599.919 11.1818 600.342 11.1818ZM607.842 12.1193C607.2 12.1193 606.653 11.9446 606.201 11.5952C605.749 11.2429 605.404 10.733 605.166 10.0653C604.927 9.39489 604.808 8.58523 604.808 7.63636C604.808 6.69318 604.927 5.88778 605.166 5.22017C605.407 4.54972 605.754 4.03835 606.205 3.68608C606.66 3.33097 607.205 3.15341 607.842 3.15341C608.478 3.15341 609.022 3.33097 609.474 3.68608C609.928 4.03835 610.275 4.54972 610.514 5.22017C610.755 5.88778 610.876 6.69318 610.876 7.63636C610.876 8.58523 610.757 9.39489 610.518 10.0653C610.279 10.733 609.934 11.2429 609.482 11.5952C609.031 11.9446 608.484 12.1193 607.842 12.1193ZM607.842 11.1818C608.478 11.1818 608.972 10.875 609.325 10.2614C609.677 9.64773 609.853 8.77273 609.853 7.63636C609.853 6.88068 609.772 6.23722 609.61 5.70597C609.451 5.17472 609.221 4.76989 608.92 4.49148C608.622 4.21307 608.262 4.07386 607.842 4.07386C607.211 4.07386 606.718 4.38494 606.363 5.0071C606.008 5.62642 605.83 6.50284 605.83 7.63636C605.83 8.39205 605.91 9.03409 606.069 9.5625C606.228 10.0909 606.457 10.4929 606.755 10.7685C607.056 11.044 607.419 11.1818 607.842 11.1818Z" fill="#525252"/>
<line x1="786" y1="24" x2="786" y2="52" stroke="#525252" stroke-width="2" stroke-linecap="round"/>
<path d="M773.333 3.27273V12H772.276V4.38068H772.225L770.094 5.79545V4.72159L772.276 3.27273H773.333ZM778.638 12.1193C778.053 12.1193 777.536 12.0156 777.087 11.8082C776.641 11.598 776.293 11.3097 776.043 10.9432C775.793 10.5739 775.67 10.1534 775.672 9.68182C775.67 9.3125 775.742 8.97159 775.89 8.65909C776.037 8.34375 776.239 8.08097 776.495 7.87074C776.753 7.65767 777.042 7.52273 777.36 7.46591V7.41477C776.942 7.30682 776.61 7.07244 776.363 6.71165C776.116 6.34801 775.993 5.93466 775.996 5.47159C775.993 5.02841 776.106 4.6321 776.333 4.28267C776.56 3.93324 776.873 3.65767 777.27 3.45597C777.671 3.25426 778.127 3.15341 778.638 3.15341C779.144 3.15341 779.596 3.25426 779.993 3.45597C780.391 3.65767 780.704 3.93324 780.931 4.28267C781.161 4.6321 781.278 5.02841 781.28 5.47159C781.278 5.93466 781.151 6.34801 780.901 6.71165C780.654 7.07244 780.326 7.30682 779.917 7.41477V7.46591C780.232 7.52273 780.516 7.65767 780.769 7.87074C781.022 8.08097 781.224 8.34375 781.374 8.65909C781.525 8.97159 781.601 9.3125 781.604 9.68182C781.601 10.1534 781.474 10.5739 781.221 10.9432C780.971 11.3097 780.623 11.598 780.177 11.8082C779.733 12.0156 779.221 12.1193 778.638 12.1193ZM778.638 11.1818C779.033 11.1818 779.374 11.1179 779.661 10.9901C779.948 10.8622 780.17 10.6818 780.326 10.4489C780.482 10.2159 780.562 9.94318 780.564 9.63068C780.562 9.30114 780.476 9.00994 780.309 8.7571C780.141 8.50426 779.912 8.3054 779.623 8.16051C779.336 8.01562 779.008 7.94318 778.638 7.94318C778.266 7.94318 777.934 8.01562 777.641 8.16051C777.351 8.3054 777.123 8.50426 776.955 8.7571C776.79 9.00994 776.709 9.30114 776.712 9.63068C776.709 9.94318 776.785 10.2159 776.938 10.4489C777.094 10.6818 777.317 10.8622 777.607 10.9901C777.897 11.1179 778.241 11.1818 778.638 11.1818ZM778.638 7.03977C778.951 7.03977 779.228 6.97727 779.469 6.85227C779.714 6.72727 779.905 6.55256 780.045 6.32812C780.184 6.10369 780.255 5.84091 780.258 5.53977C780.255 5.24432 780.185 4.98722 780.049 4.76847C779.912 4.54687 779.724 4.37642 779.482 4.2571C779.241 4.13494 778.959 4.07386 778.638 4.07386C778.312 4.07386 778.026 4.13494 777.782 4.2571C777.537 4.37642 777.349 4.54687 777.215 4.76847C777.081 4.98722 777.016 5.24432 777.019 5.53977C777.016 5.84091 777.083 6.10369 777.219 6.32812C777.358 6.55256 777.55 6.72727 777.795 6.85227C778.039 6.97727 778.32 7.03977 778.638 7.03977ZM783.987 10.8835C783.777 10.8835 783.597 10.8082 783.446 10.6577C783.296 10.5071 783.22 10.3267 783.22 10.1165C783.22 9.90625 783.296 9.72585 783.446 9.57528C783.597 9.42472 783.777 9.34943 783.987 9.34943C784.198 9.34943 784.378 9.42472 784.529 9.57528C784.679 9.72585 784.754 9.90625 784.754 10.1165C784.754 10.2557 784.719 10.3835 784.648 10.5C784.58 10.6165 784.487 10.7102 784.371 10.7812C784.257 10.8494 784.129 10.8835 783.987 10.8835ZM783.987 6.46875C783.777 6.46875 783.597 6.39347 783.446 6.2429C783.296 6.09233 783.22 5.91193 783.22 5.7017C783.22 5.49148 783.296 5.31108 783.446 5.16051C783.597 5.00994 783.777 4.93466 783.987 4.93466C784.198 4.93466 784.378 5.00994 784.529 5.16051C784.679 5.31108 784.754 5.49148 784.754 5.7017C784.754 5.84091 784.719 5.96875 784.648 6.08523C784.58 6.2017 784.487 6.29545 784.371 6.36648C784.257 6.43466 784.129 6.46875 783.987 6.46875ZM789.389 12.1193C788.747 12.1193 788.2 11.9446 787.748 11.5952C787.296 11.2429 786.951 10.733 786.713 10.0653C786.474 9.39489 786.355 8.58523 786.355 7.63636C786.355 6.69318 786.474 5.88778 786.713 5.22017C786.954 4.54972 787.301 4.03835 787.752 3.68608C788.207 3.33097 788.752 3.15341 789.389 3.15341C790.025 3.15341 790.569 3.33097 791.021 3.68608C791.475 4.03835 791.822 4.54972 792.061 5.22017C792.302 5.88778 792.423 6.69318 792.423 7.63636C792.423 8.58523 792.303 9.39489 792.065 10.0653C791.826 10.733 791.481 11.2429 791.029 11.5952C790.578 11.9446 790.031 12.1193 789.389 12.1193ZM789.389 11.1818C790.025 11.1818 790.519 10.875 790.872 10.2614C791.224 9.64773 791.4 8.77273 791.4 7.63636C791.4 6.88068 791.319 6.23722 791.157 5.70597C790.998 5.17472 790.768 4.76989 790.467 4.49148C790.169 4.21307 789.809 4.07386 789.389 4.07386C788.758 4.07386 788.265 4.38494 787.91 5.0071C787.555 5.62642 787.377 6.50284 787.377 7.63636C787.377 8.39205 787.457 9.03409 787.616 9.5625C787.775 10.0909 788.004 10.4929 788.302 10.7685C788.603 11.044 788.965 11.1818 789.389 11.1818ZM796.889 12.1193C796.247 12.1193 795.7 11.9446 795.248 11.5952C794.796 11.2429 794.451 10.733 794.213 10.0653C793.974 9.39489 793.855 8.58523 793.855 7.63636C793.855 6.69318 793.974 5.88778 794.213 5.22017C794.454 4.54972 794.801 4.03835 795.252 3.68608C795.707 3.33097 796.252 3.15341 796.889 3.15341C797.525 3.15341 798.069 3.33097 798.521 3.68608C798.975 4.03835 799.322 4.54972 799.561 5.22017C799.802 5.88778 799.923 6.69318 799.923 7.63636C799.923 8.58523 799.803 9.39489 799.565 10.0653C799.326 10.733 798.981 11.2429 798.529 11.5952C798.078 11.9446 797.531 12.1193 796.889 12.1193ZM796.889 11.1818C797.525 11.1818 798.019 10.875 798.372 10.2614C798.724 9.64773 798.9 8.77273 798.9 7.63636C798.9 6.88068 798.819 6.23722 798.657 5.70597C798.498 5.17472 798.268 4.76989 797.967 4.49148C797.669 4.21307 797.309 4.07386 796.889 4.07386C796.258 4.07386 795.765 4.38494 795.41 5.0071C795.055 5.62642 794.877 6.50284 794.877 7.63636C794.877 8.39205 794.957 9.03409 795.116 9.5625C795.275 10.0909 795.504 10.4929 795.802 10.7685C796.103 11.044 796.465 11.1818 796.889 11.1818Z" fill="#525252"/>
<line x1="61.25" y1="36.25" x2="61.25" y2="41.75" stroke="#525252" stroke-width="0.5" stroke-linecap="round"/>
<line x1="124.25" y1="36.25" x2="124.25" y2="41.75" stroke="#525252" stroke-width="0.5" stroke-linecap="round"/>
<line x1="187.25" y1="36.25" x2="187.25" y2="41.75" stroke="#525252" stroke-width="0.5" stroke-linecap="round"/>
<line x1="250.25" y1="36.25" x2="250.25" y2="41.75" stroke="#525252" stroke-width="0.5" stroke-linecap="round"/>
<line x1="313.25" y1="36.25" x2="313.25" y2="41.75" stroke="#525252" stroke-width="0.5" stroke-linecap="round"/>
<line x1="376.25" y1="36.25" x2="376.25" y2="41.75" stroke="#525252" stroke-width="0.5" stroke-linecap="round"/>
<line x1="439.25" y1="36.25" x2="439.25" y2="41.75" stroke="#525252" stroke-width="0.5" stroke-linecap="round"/>
<line x1="502.25" y1="36.25" x2="502.25" y2="41.75" stroke="#525252" stroke-width="0.5" stroke-linecap="round"/>
<line x1="565.25" y1="36.25" x2="565.25" y2="41.75" stroke="#525252" stroke-width="0.5" stroke-linecap="round"/>
<line x1="691.25" y1="36.25" x2="691.25" y2="41.75" stroke="#525252" stroke-width="0.5" stroke-linecap="round"/>
<line x1="628.25" y1="36.25" x2="628.25" y2="41.75" stroke="#525252" stroke-width="0.5" stroke-linecap="round"/>
<line x1="754.25" y1="36.25" x2="754.25" y2="41.75" stroke="#525252" stroke-width="0.5" stroke-linecap="round"/>
</svg>
