<svg fill="none" xmlns="http://www.w3.org/2000/svg">
<path d="M0 16.5H757" stroke="#6B4D57"/>
<line x1="1" y1="1" x2="0.999999" y2="29" stroke="#525252" stroke-width="2" stroke-linecap="round"/>
<line x1="63.5" y1="9.5" x2="63.5" y2="23.5" stroke="#525252" stroke-linecap="round"/>
<line x1="441.5" y1="9.5" x2="441.5" y2="23.5" stroke="#525252" stroke-linecap="round"/>
<line x1="630.5" y1="9.5" x2="630.5" y2="23.5" stroke="#525252" stroke-linecap="round"/>
<line x1="315.5" y1="9.5" x2="315.5" y2="23.5" stroke="#525252" stroke-linecap="round"/>
<line x1="504.5" y1="9.5" x2="504.5" y2="23.5" stroke="#525252" stroke-linecap="round"/>
<line x1="693.5" y1="9.5" x2="693.5" y2="23.5" stroke="#525252" stroke-linecap="round"/>
<line x1="126.5" y1="9.5" x2="126.5" y2="23.5" stroke="#525252" stroke-linecap="round"/>
<line x1="253.5" y1="9.5" x2="253.5" y2="23.5" stroke="#525252" stroke-linecap="round"/>
<line x1="190" y1="1" x2="190" y2="29" stroke="#525252" stroke-width="2" stroke-linecap="round"/>
<line x1="379" y1="1" x2="379" y2="29" stroke="#525252" stroke-width="2" stroke-linecap="round"/>
<line x1="568" y1="1" x2="568" y2="29" stroke="#525252" stroke-width="2" stroke-linecap="round"/>
<line x1="757" y1="1" x2="757" y2="29" stroke="#525252" stroke-width="2" stroke-linecap="round"/>
<line x1="32.25" y1="13.25" x2="32.25" y2="18.75" stroke="#525252" stroke-width="0.5" stroke-linecap="round"/>
<line x1="95.25" y1="13.25" x2="95.25" y2="18.75" stroke="#525252" stroke-width="0.5" stroke-linecap="round"/>
<line x1="158.25" y1="13.25" x2="158.25" y2="18.75" stroke="#525252" stroke-width="0.5" stroke-linecap="round"/>
<line x1="221.25" y1="13.25" x2="221.25" y2="18.75" stroke="#525252" stroke-width="0.5" stroke-linecap="round"/>
<line x1="284.25" y1="13.25" x2="284.25" y2="18.75" stroke="#525252" stroke-width="0.5" stroke-linecap="round"/>
<line x1="347.25" y1="13.25" x2="347.25" y2="18.75" stroke="#525252" stroke-width="0.5" stroke-linecap="round"/>
<line x1="410.25" y1="13.25" x2="410.25" y2="18.75" stroke="#525252" stroke-width="0.5" stroke-linecap="round"/>
<line x1="473.25" y1="13.25" x2="473.25" y2="18.75" stroke="#525252" stroke-width="0.5" stroke-linecap="round"/>
<line x1="536.25" y1="13.25" x2="536.25" y2="18.75" stroke="#525252" stroke-width="0.5" stroke-linecap="round"/>
<line x1="662.25" y1="13.25" x2="662.25" y2="18.75" stroke="#525252" stroke-width="0.5" stroke-linecap="round"/>
<line x1="599.25" y1="13.25" x2="599.25" y2="18.75" stroke="#525252" stroke-width="0.5" stroke-linecap="round"/>
<line x1="725.25" y1="13.25" x2="725.25" y2="18.75" stroke="#525252" stroke-width="0.5" stroke-linecap="round"/>
</svg>
