<svg width="113" height="113" viewBox="0 0 113 113" fill="none" xmlns="http://www.w3.org/2000/svg">
<path d="M113 56.5C113 87.7041 87.7041 113 56.5 113C25.2959 113 0 87.7041 0 56.5C0 25.2959 25.2959 0 56.5 0C87.7041 0 113 25.2959 113 56.5Z" fill="#E6E6E6"/>
<circle cx="56.4996" cy="56.5001" r="27.2037" fill="#6183FC"/>
<line x1="57.15" y1="15" x2="57.15" y2="25" stroke="black" stroke-width="0.3"/>
<line x1="57.15" y1="88" x2="57.15" y2="98" stroke="black" stroke-width="0.3"/>
<line x1="15.5" y1="56.35" x2="25.5" y2="56.35" stroke="black" stroke-width="0.3"/>
<line x1="88.5" y1="56.35" x2="98.5" y2="56.35" stroke="black" stroke-width="0.3"/>
<line x1="34.3434" y1="79.1544" x2="22.3434" y2="91.1544" stroke="black" stroke-width="0.3"/>
<line x1="91.3434" y1="22.1544" x2="79.3434" y2="34.1544" stroke="black" stroke-width="0.3"/>
<line x1="48.307" y1="87.0857" x2="47.1426" y2="91.4313" stroke="black" stroke-width="0.3"/>
<line x1="66.3253" y1="19.0317" x2="65.423" y2="23.2097" stroke="black" stroke-width="0.3"/>
<line x1="40.335" y1="83.8558" x2="38.0855" y2="87.7519" stroke="black" stroke-width="0.3"/>
<line x1="75.3532" y1="22.7841" x2="73.4002" y2="26.5862" stroke="black" stroke-width="0.3"/>
<line x1="28.1824" y1="71.8899" x2="24.2863" y2="74.1394" stroke="black" stroke-width="0.3"/>
<line x1="89.0461" y1="36.5091" x2="85.4538" y2="38.8254" stroke="black" stroke-width="0.3"/>
<line x1="24.8298" y1="63.9691" x2="20.4842" y2="65.1335" stroke="black" stroke-width="0.3"/>
<line x1="92.7764" y1="45.5469" x2="88.7069" y2="46.8544" stroke="black" stroke-width="0.3"/>
<line x1="24.6985" y1="46.9147" x2="20.3529" y2="45.7503" stroke="black" stroke-width="0.3"/>
<line x1="92.7525" y1="64.934" x2="88.5745" y2="64.0316" stroke="black" stroke-width="0.3"/>
<line x1="27.9279" y1="38.9431" x2="24.0318" y2="36.6937" stroke="black" stroke-width="0.3"/>
<line x1="89.0008" y1="73.9623" x2="85.1987" y2="72.0093" stroke="black" stroke-width="0.3"/>
<line x1="33.9887" y1="34.3099" x2="21.9887" y2="22.3099" stroke="black" stroke-width="0.3"/>
<line x1="90.9887" y1="91.3116" x2="78.9887" y2="79.3116" stroke="black" stroke-width="0.3"/>
<line x1="39.8945" y1="26.7908" x2="37.6451" y2="22.8947" stroke="black" stroke-width="0.3"/>
<line x1="75.2743" y1="87.6545" x2="72.9581" y2="84.0622" stroke="black" stroke-width="0.3"/>
<line x1="47.8151" y1="23.4382" x2="46.6507" y2="19.0926" stroke="black" stroke-width="0.3"/>
<line x1="66.2371" y1="91.385" x2="64.9295" y2="87.3156" stroke="black" stroke-width="0.3"/>
</svg>
